<?xml version="1.0" encoding="utf-8"?>
<!-- Generator: Adobe Illustrator 15.0.0, SVG Export Plug-In . SVG Version: 6.00 Build 0)  -->
<!DOCTYPE svg PUBLIC "-//W3C//DTD SVG 1.1//EN" "http://www.w3.org/Graphics/SVG/1.1/DTD/svg11.dtd">
<svg version="1.1" id="图层_1" xmlns="http://www.w3.org/2000/svg" xmlns:xlink="http://www.w3.org/1999/xlink" x="0px" y="0px"
	 width="44.157px" height="46.165px" viewBox="0 0 44.157 46.165" enable-background="new 0 0 44.157 46.165" xml:space="preserve">
<g>
	<linearGradient id="SVGID_1_" gradientUnits="userSpaceOnUse" x1="2.4668" y1="33.6919" x2="22.123" y2="33.6919">
		<stop  offset="0.0056" style="stop-color:#FFFFFF"/>
		<stop  offset="0.1092" style="stop-color:#FFE5E9"/>
		<stop  offset="0.2556" style="stop-color:#FFC7D0"/>
		<stop  offset="0.4108" style="stop-color:#FFB0BC"/>
		<stop  offset="0.5767" style="stop-color:#FFA0AE"/>
		<stop  offset="0.7609" style="stop-color:#FF96A6"/>
		<stop  offset="1" style="stop-color:#FF93A3"/>
	</linearGradient>
	<path fill-rule="evenodd" clip-rule="evenodd" fill="url(#SVGID_1_)" d="M20.291,23.014c0,0-0.482-0.289-1.396-0.143
		c-0.914,0.143-3.092,0.896-5.08,1.666c-1.989,0.764-2.909,1.451-4.307,1.791c-1.396,0.34-3.587,0.221-4.113,0.398
		c-0.524,0.176-2.177,0.32-2.778,2.318c-0.601,1.998,0.762,2.725,1.357,3.006c0.6,0.277,0.776,0.176,0.781,0.547
		c0.004,0.369-0.655,3.314,0.473,4.359c1.127,1.049,2.258,0.883,2.681,0.668c0.425-0.211,0.48-0.24,0.709,0.191
		c0.228,0.428,0.129,1.777,1.868,2.818c1.738,1.045,2.157,0.557,2.339,0.635c0.184,0.076,0.24,0.338,0.436,1.059
		c0.191,0.723,0.536,1.561,1.568,2.033c1.031,0.471,1.412-0.047,1.549-0.27c0.141-0.229,0.281-0.838,0.531-3.469
		c0.252-2.631,1.309-5.893,1.602-6.82c0.293-0.932,2.123-4.301,2.613-5.191c0.492-0.896,0.627-1.211,0.627-1.211
		s-0.125,0.086-0.496,0.475c-0.371,0.393-0.842,0.654-1.441,1.096c-0.594,0.443-1.93,1.621-2.465,2.35
		c-0.529,0.73-1.246,1.916-1.334,2.689c-0.082,0.773,0.041,0.721,0.154,0.689c0.109-0.035,0.309-0.039,0.367,0.207
		c0.057,0.25-0.207,0.633-0.73,0.568c-0.522-0.066-0.628-0.365-0.58-0.523c0.047-0.158,0.277-0.129,0.35-0.309
		c0.078-0.182,0.1-1.207,0.41-1.895c0.311-0.695,1.506-2.063,2.014-2.672c0.506-0.609,2.92-2.143,3.412-2.654
		c0.492-0.514,0.725-1.113,0.713-1.559s-0.09-1.08-0.232-1.211c-0.141-0.127-0.408-0.168-0.488,0.096
		c-0.08,0.262-0.355,0.924-0.684,1.287c-0.332,0.363-1.086,0.891-2.229,1.357c-1.141,0.459-2.748,1.049-3.237,1.449
		c-0.483,0.398-0.815,0.697-0.87,0.809c-0.053,0.111-0.03,0.156,0.064,0.223c0.094,0.064,0.098,0.41-0.045,0.543
		c-0.146,0.131-0.63,0.131-0.797-0.068c-0.166-0.201-0.085-0.627,0.092-0.77c0.176-0.146,0.424-0.057,0.635-0.303
		c0.212-0.246,1.268-0.963,1.57-1.121c0.303-0.164,1.213-0.516,2.449-1.018c1.236-0.506,1.986-1.098,2.268-1.623
		c0.277-0.523,0.545-0.971,0.441-1.283c-0.102-0.314-0.242-0.645-0.576-0.656c-0.33-0.016-1.047,0.143-1.623,0.463
		c-0.572,0.322-1.637,1.158-2.303,1.658c-0.662,0.504-1.75,1.234-2.291,1.365c-0.541,0.133-1.049,0.141-1.194,0.215
		c-0.144,0.07-0.238,0.277-0.378,0.316c-0.141,0.031-0.476-0.088-0.48-0.42c-0.001-0.33,0.111-0.621,0.424-0.688
		c0.311-0.063,0.379,0.188,0.577,0.289c0.197,0.105,1.382-0.006,2.394-0.805c1.016-0.807,2.084-1.773,2.852-2.119
		c0.764-0.35,1.631-0.326,1.791-0.49s0.184-0.188,0.172-0.248C20.412,23.049,20.291,23.014,20.291,23.014z"/>
	<linearGradient id="SVGID_2_" gradientUnits="userSpaceOnUse" x1="0" y1="15.5112" x2="21.2891" y2="15.5112">
		<stop  offset="0.0056" style="stop-color:#FFFFFF"/>
		<stop  offset="0.1092" style="stop-color:#FFE5E9"/>
		<stop  offset="0.2556" style="stop-color:#FFC7D0"/>
		<stop  offset="0.4108" style="stop-color:#FFB0BC"/>
		<stop  offset="0.5767" style="stop-color:#FFA0AE"/>
		<stop  offset="0.7609" style="stop-color:#FF96A6"/>
		<stop  offset="1" style="stop-color:#FF93A3"/>
	</linearGradient>
	<path fill-rule="evenodd" clip-rule="evenodd" fill="url(#SVGID_2_)" d="M19.664,22.581c-0.148-0.035-1.541,0.051-3.096,0.621
		c-1.556,0.578-2.951,1.063-5.075,1.848c-2.124,0.787-4.344,1.523-5.527,1.324c-1.187-0.205-2.496-0.08-3.744-1.199
		c-1.248-1.123-0.964-1.875-0.602-2.479c0.361-0.604,0.429-0.66,0.053-0.738c-0.374-0.076-1.959-0.424-1.628-2.004
		c0.334-1.573,2.355-2.827,2.918-3.167c0.565-0.343,0.686-0.563,0.339-1.061c-0.348-0.501-0.961-0.835-0.755-1.772
		c0.207-0.932,1.436-1.749,2.074-2.086c0.642-0.331,2.373-0.75,2.669-1.351C7.585,9.917,7.694,7.91,8.181,7.098
		c0.485-0.809,1.877-2.452,3.539-2.481c1.663-0.035,3.282,0.53,4.44,2.039s1.652,2.569,2.227,3.724
		c0.57,1.154,1.953,5.845,2.162,7.377c0.217,1.532,0.553,2.977,0.662,3.366c0.111,0.39,0.111,0.884-0.051,0.958
		c-0.16,0.076-0.369-0.457-1.342-1.225c-0.973-0.765-1.742-1.052-2.41-1.699s-0.965-1.676-0.857-2.414
		c0.109-0.732,0.43-1.526,0.609-1.682c0.182-0.155,0.295-0.111,0.469-0.246c0.172-0.135,0.244-0.565,0.035-0.686
		c-0.209-0.117-0.697-0.313-0.85-0.082c-0.146,0.231,0.029,0.401-0.029,0.647s0.012,0.076-0.199,0.759
		c-0.215,0.688-0.58,1.497-0.316,2.338c0.266,0.844,0.791,1.626,1.705,2.206c0.914,0.574,1.406,0.979,1.822,1.277
		c0.414,0.298,0.84,0.749,0.816,0.87c-0.023,0.117-0.109,0.377-0.256,0.377c-0.143,0-0.543-0.486-1.877-0.867
		c-1.334-0.377-1.859-0.389-3.351-0.006c-1.492,0.387-1.523,0.273-1.905,0.098c-0.386-0.18-0.307-0.264-0.316-0.448
		c-0.011-0.19-0.263-0.372-0.389-0.354c-0.124,0.012-0.519,0.105-0.565,0.611c-0.047,0.504,0.29,0.604,0.521,0.537
		c0.23-0.068,0.439,0.049,1.187,0.119c0.746,0.074,1.623-0.299,2.371-0.445c0.748-0.152,1.979,0.197,2.453,0.299
		c0.471,0.104,1.137,0.326,1.215,0.373c0.078,0.053,0.043,0.088,0.043,0.088L19.664,22.581z"/>
	<linearGradient id="SVGID_3_" gradientUnits="userSpaceOnUse" x1="17.7266" y1="23.0825" x2="44.1563" y2="23.0825">
		<stop  offset="0.0056" style="stop-color:#FFFFFF"/>
		<stop  offset="0.1092" style="stop-color:#FFE5E9"/>
		<stop  offset="0.2556" style="stop-color:#FFC7D0"/>
		<stop  offset="0.4108" style="stop-color:#FFB0BC"/>
		<stop  offset="0.5767" style="stop-color:#FFA0AE"/>
		<stop  offset="0.7609" style="stop-color:#FF96A6"/>
		<stop  offset="1" style="stop-color:#FF93A3"/>
	</linearGradient>
	<path fill-rule="evenodd" clip-rule="evenodd" fill="url(#SVGID_3_)" d="M21.592,21.807c0.023-0.07,0.039-4.3-0.779-6.181
		c-0.818-1.875-2.523-7.257-2.527-9.076c-0.004-1.506,0.361-2.892,1.063-4.069c0.328-0.551,1.078-1.494,2.307-1.98
		c1.227-0.48,2.256-0.75,3.365-0.176c1.111,0.568,1.457,1.213,1.701,2.071c0.24,0.858,0.227,1.89,0.193,2.063
		s0.053,0.782,0.531-0.097c0.475-0.876,0.938-1.468,1.58-1.784c0.645-0.319,1.531-0.287,2.041-0.003l0.08,0.047l0.029,0.053
		c0.828,1.553,0.828,2.221,0.828,2.221l0.023-0.006c0,0.091,0.016,0.155,0.016,0.155s0.014,0.39,0.281,0.7
		c0.264,0.316,2.297-0.483,3.158-0.375c0.861,0.111,1.912,0.814,2.086,2.317c0.172,1.497,0.105,2.426-0.783,3.896
		c-0.893,1.468-4.238,4.037-5.439,5.818c-1.205,1.784-2.379,2.707-2.988,3.275c-0.604,0.571-1.617,1.101-1.617,1.101l-0.117,0.25
		c0,0,4.699-1.345,6.188-2.569c1.482-1.225,3.834-2.353,5.064-2.877c1.234-0.519,3.217-1.075,4.641-0.149
		c1.428,0.923,1.289,2.098,0.82,3.612c-0.471,1.511-0.711,1.558-0.492,2.147c0.223,0.586,1.322,1.525,1.313,2.516
		c-0.012,0.994-0.533,1.736-0.998,2.029c-0.467,0.295-0.766,0.418-0.715,0.791c0.053,0.371,0.563,1.836,0.844,2.238
		c0.287,0.4,0.887,1.479,0.516,2.691c-0.369,1.207-0.979,1.826-1.975,2.168c-0.996,0.344-3.092-0.018-4.295-0.451
		c-1.207-0.43-4.475-2.227-5.572-3.131c-1.107-0.906-3.328-2.43-4.73-3.619c-1.398-1.189-1.994-1.676-2.264-1.828
		s-0.498-0.482-0.621-0.447c-0.125,0.037-0.422,0.264,0.684,1.225c1.107,0.957,2.523,2.35,3.646,3.025
		c1.123,0.678,2.754,1.75,4.07,3.152c1.313,1.4,2.232,2.928,2.596,4.395c0.359,1.469,0.4,2.268,0.137,3.141
		c-0.26,0.879-0.334,1.246-0.793,1.477c-0.463,0.234-0.809,0.404-0.656,0.613c0.008,0.014,0.025,0.029,0.049,0.043l-0.053,0.027
		c-1.004,0.504-1.291,0.857-1.57,1.16c-0.119-0.08-0.217-0.129-0.295-0.15c-0.309-0.088-0.709,0-0.996-0.188
		c-0.287-0.193-0.408-0.506-0.607-0.539c-0.195-0.035-0.48,0.145-0.688,0.672c-0.209,0.523-0.814,1.283-1.494,1.73
		c-0.68,0.449-0.902,0.391-1.471,0.268c-0.566-0.127-1.096-0.508-1.293-1.025c-0.197-0.516-0.289-0.625-0.469-0.521
		c-0.178,0.1-0.307,0.346-0.551,0.697c-0.246,0.352-1.254,1.348-2.096,1.613c-0.844,0.264-1.813,0.568-3.107-1.225
		c-1.295-1.795-1.77-3.512-1.643-4.707c0.125-1.189,0.367-3.215,0.771-4.91c0.404-1.693,2.014-4.498,2.684-5.787
		c0.672-1.283,1.207-2.287,1.238-2.859c0.031-0.576-0.174-0.975-0.074-1.148c0.1-0.178,0.357-0.199,0.52-0.113
		c0.164,0.088,0.521,0.705,0.451,1.555c-0.066,0.859-0.939,3.275-1.068,3.662c-0.127,0.385-1.098,3.012-1.166,3.455
		c-0.068,0.441-0.092,1.232-0.025,1.426c0.061,0.199,0,0.363,0.012,0.592c0.01,0.229,0.15,0.627,0.479,0.66
		c0.326,0.025,0.682-0.152,0.707-0.443c0.025-0.287-0.191-0.582-0.377-0.58c-0.184,0.004-0.49,0.104-0.471-0.727
		c0.02-0.828,0.598-2.229,0.855-2.949c0.258-0.727,0.945-2.664,1.121-3.25c0.18-0.58,0.416-1.74,0.264-2.303
		c-0.148-0.564-0.352-0.74-0.377-0.863c-0.023-0.121,0.203-0.205,0.262-0.139c0.057,0.068,0.982,1.529,1.258,2.652
		c0.277,1.115,0.785,2.656,0.852,3.99c0.07,1.33,0.605,2.619,1.229,3.105c0.625,0.488,0.953,0.541,1.404,0.393
		c0.447-0.145,0.568-0.338,0.902-0.35c0.33-0.012,0.588,0.094,0.563-0.172c-0.023-0.268-0.018-0.467-0.316-0.645
		c-0.293-0.176-0.627-0.355-0.779-0.152c-0.158,0.195-0.193,0.521-0.08,0.588c0.115,0.07,0.074,0.297-0.295,0.287
		c-0.367-0.008-1.025,0.094-1.584-1.361c-0.561-1.453-0.543-2.865-0.852-3.961c-0.305-1.102-1.201-3.035-1.42-3.398
		c-0.215-0.361-0.443-0.883-0.631-1.189s-0.184-0.754,0.094-0.795c0.281-0.043,1.979,0.471,3.063,0.891
		c1.092,0.42,1.602,1.02,2.68,2.4c1.072,1.377,1.773,1.625,2.33,1.77c0.553,0.141,0.697,0.217,0.709,0.33
		c0.008,0.117,0.158,0.285,0.346,0.309c0.184,0.02,0.393-0.123,0.512-0.422c0.111-0.299,0.111-0.463-0.09-0.602
		c-0.203-0.141-0.516-0.188-0.633-0.049c-0.117,0.141-0.461,0.225-1.035-0.176c-0.57-0.402-1.207-0.984-2.105-2.043
		c-0.896-1.055-1.893-1.922-3.152-2.266c-1.256-0.348-1.846-0.494-1.781-0.529c0.07-0.033,0.189-0.033,1.85,0.279
		c1.662,0.309,3.781-0.107,4.873-0.5c1.094-0.389,2.789-1.092,3.246-1.549c0.457-0.461,0.766-0.853,0.92-1.125
		c0.156-0.27,0.217-0.264,0.303-0.378c0.088-0.117,0.223-0.193,0.217-0.398c-0.004-0.199-0.361-0.354-0.533-0.337
		c-0.176,0.015-0.467,0.012-0.58,0.264c-0.117,0.249-0.152,0.431,0.043,0.516c0.203,0.079,0.268,0.047,0.209,0.226
		c-0.059,0.182-0.35,0.743-1.48,1.306c-1.137,0.563-3.031,1.199-4.189,1.318c-1.156,0.121-2.623,0.121-3.725,0.016
		c-1.105-0.111-1.748-0.064-1.994-0.135c-0.25-0.074-0.246-0.203,0.029-0.527c0.275-0.328,0.525-0.59,1.043-1.275
		c0.518-0.688,1.502-3.365,1.832-3.963c0.324-0.595,0.967-1.878,1.734-2.408c0.77-0.533,0.588-0.369,0.803-0.401
		c0.213-0.032,0.445,0.012,0.469-0.264c0.018-0.272-0.24-0.489-0.492-0.554c-0.252-0.07-0.637,0.032-0.715,0.284
		c-0.076,0.249-0.422,0.694-0.574,0.838c-0.15,0.141-0.891,0.712-1.586,2.004c-0.693,1.295-1.264,2.877-1.541,3.448
		c-0.275,0.563-1.236,2.17-1.502,2.34c-0.264,0.17-0.566,0.373-0.641,0.092c-0.072-0.281,0.475-0.941,0.672-1.316
		c0.197-0.377,0.549-1.238,0.738-2.114c0.188-0.879,0.24-3.612,0.182-4.257c-0.057-0.647-0.52-1.453-0.439-1.591
		c0.08-0.144,0.26-0.182,0.297-0.363c0.033-0.176-0.127-0.407-0.379-0.454c-0.25-0.041-0.764,0.006-0.855,0.199
		c-0.086,0.193,0.053,0.521,0.35,0.765c0.295,0.243,0.729,1.503,0.619,2.912c-0.109,1.406-0.336,2.818-0.512,3.439
		c-0.178,0.624-0.445,1.329-0.568,1.626c-0.123,0.295-0.297,0.605-0.467,0.656c-0.168,0.049-0.336-0.033-0.494-0.18
		c-0.158-0.148-0.209-0.119-0.234-0.289C21.639,21.895,21.592,21.807,21.592,21.807z"/>
</g>
</svg>
