<?xml version="1.0" encoding="utf-8"?>
<!-- Generator: Adobe Illustrator 15.0.0, SVG Export Plug-In . SVG Version: 6.00 Build 0)  -->
<!DOCTYPE svg PUBLIC "-//W3C//DTD SVG 1.1//EN" "http://www.w3.org/Graphics/SVG/1.1/DTD/svg11.dtd">
<svg version="1.1" id="图层_1" xmlns="http://www.w3.org/2000/svg" xmlns:xlink="http://www.w3.org/1999/xlink" x="0px" y="0px"
	 width="34.146px" height="33.738px" viewBox="0 0 34.146 33.738" enable-background="new 0 0 34.146 33.738" xml:space="preserve">
<g>
	<linearGradient id="SVGID_1_" gradientUnits="userSpaceOnUse" x1="11.2324" y1="8.0068" x2="27.4834" y2="8.0068">
		<stop  offset="0.0056" style="stop-color:#FFFFFF"/>
		<stop  offset="0.0758" style="stop-color:#E0F3D4"/>
		<stop  offset="0.1686" style="stop-color:#BCE4A3"/>
		<stop  offset="0.2663" style="stop-color:#9DD877"/>
		<stop  offset="0.3672" style="stop-color:#82CD53"/>
		<stop  offset="0.472" style="stop-color:#6CC435"/>
		<stop  offset="0.5821" style="stop-color:#5BBD1D"/>
		<stop  offset="0.6999" style="stop-color:#4FB90D"/>
		<stop  offset="0.8305" style="stop-color:#48B603"/>
		<stop  offset="1" style="stop-color:#46B500"/>
	</linearGradient>
	<path fill-rule="evenodd" clip-rule="evenodd" fill="url(#SVGID_1_)" d="M15.842,15.733c0,0-0.398-0.179-0.713-0.817
		c-0.315-0.642-0.812-2.35-1.211-3.943c-0.403-1.597-0.376-2.481-0.784-3.513c-0.41-1.031-1.46-2.364-1.581-2.771
		c-0.125-0.41-0.771-1.515,0.224-2.786c0.995-1.269,2.063-0.735,2.505-0.483s0.456,0.41,0.691,0.249
		c0.237-0.161,1.804-1.89,2.968-1.644c1.163,0.24,1.559,1.028,1.614,1.392c0.056,0.36,0.064,0.41,0.434,0.36
		c0.372-0.047,1.184-0.706,2.616-0.079c1.433,0.633,1.31,1.113,1.444,1.195c0.129,0.082,0.319,0.003,0.861-0.196
		c0.539-0.202,1.225-0.36,1.983,0.082c0.756,0.439,0.598,0.911,0.519,1.099c-0.082,0.188-0.404,0.548-1.954,1.878
		c-1.547,1.33-3.138,3.448-3.598,4.046c-0.454,0.601-1.767,3.255-2.115,3.964c-0.346,0.709-0.48,0.935-0.48,0.935
		s-0.003-0.117,0.076-0.527c0.082-0.407,0.035-0.817,0.05-1.395c0.015-0.571,0.161-1.939,0.39-2.599
		c0.22-0.662,0.65-1.644,1.102-2.039c0.451-0.401,0.475-0.299,0.504-0.214c0.026,0.088,0.111,0.214,0.296,0.141
		c0.182-0.076,0.305-0.41,0.032-0.712c-0.275-0.299-0.51-0.234-0.589-0.135s0.041,0.231-0.041,0.36
		c-0.076,0.126-0.718,0.598-1.014,1.099c-0.299,0.507-0.633,1.869-0.788,2.461c-0.161,0.592-0.053,2.798-0.158,3.334
		c-0.103,0.536-0.384,0.952-0.671,1.146c-0.284,0.19-0.721,0.425-0.864,0.393s-0.29-0.185-0.158-0.352
		c0.129-0.164,0.428-0.636,0.507-1.005c0.082-0.372,0.079-1.081-0.135-2.004c-0.217-0.932-0.56-2.206-0.524-2.692
		c0.035-0.483,0.076-0.823,0.126-0.908c0.044-0.082,0.079-0.088,0.167-0.059c0.082,0.032,0.302-0.12,0.319-0.27
		s-0.196-0.454-0.398-0.472c-0.196-0.018-0.431,0.226-0.444,0.398c-0.013,0.176,0.154,0.293,0.093,0.536s-0.042,1.228-0.007,1.491
		c0.03,0.261,0.212,0.993,0.446,1.995c0.231,1.005,0.19,1.743-0.018,2.153c-0.205,0.407-0.363,0.773-0.61,0.847
		c-0.242,0.079-0.515,0.135-0.67-0.067c-0.155-0.205-0.381-0.724-0.432-1.23c-0.051-0.504,0-1.544,0.02-2.188
		c0.022-0.645,0-1.652-0.156-2.054s-0.381-0.724-0.398-0.85c-0.018-0.12,0.072-0.275,0.032-0.375
		c-0.041-0.105-0.268-0.264-0.476-0.12c-0.211,0.146-0.343,0.349-0.248,0.571c0.1,0.229,0.286,0.158,0.439,0.237
		c0.155,0.076,0.613,0.873,0.559,1.869c-0.057,0.999-0.192,2.104-0.069,2.742c0.122,0.636,0.522,1.175,0.489,1.345
		c-0.032,0.176-0.038,0.199-0.082,0.22C15.918,15.792,15.842,15.733,15.842,15.733z"/>
	<linearGradient id="SVGID_2_" gradientUnits="userSpaceOnUse" x1="0" y1="11.8623" x2="15.6426" y2="11.8623">
		<stop  offset="0.0056" style="stop-color:#FFFFFF"/>
		<stop  offset="0.0758" style="stop-color:#E0F3D4"/>
		<stop  offset="0.1686" style="stop-color:#BCE4A3"/>
		<stop  offset="0.2663" style="stop-color:#9DD877"/>
		<stop  offset="0.3672" style="stop-color:#82CD53"/>
		<stop  offset="0.472" style="stop-color:#6CC435"/>
		<stop  offset="0.5821" style="stop-color:#5BBD1D"/>
		<stop  offset="0.6999" style="stop-color:#4FB90D"/>
		<stop  offset="0.8305" style="stop-color:#48B603"/>
		<stop  offset="1" style="stop-color:#46B500"/>
	</linearGradient>
	<path fill-rule="evenodd" clip-rule="evenodd" fill="url(#SVGID_2_)" d="M15.291,15.528c-0.088-0.079-0.658-0.99-0.986-2.229
		c-0.331-1.233-0.649-2.329-1.097-4.017c-0.45-1.693-0.973-3.419-1.626-4.078c-0.655-0.656-1.16-1.538-2.424-1.822
		C7.893,3.091,7.542,3.61,7.322,4.105s-0.226,0.563-0.441,0.36S5.737,3.419,4.89,4.333C4.042,5.245,4.153,7.079,4.188,7.585
		c0.032,0.507-0.05,0.68-0.519,0.683C3.198,8.271,2.712,8.034,2.215,8.579c-0.5,0.548-0.472,1.688-0.396,2.241
		c0.076,0.551,0.582,1.831,0.334,2.282s-1.469,1.418-1.765,2.086c-0.293,0.668-0.709,2.273,0.01,3.337
		c0.721,1.063,1.797,1.83,3.267,1.889s2.363-0.102,3.344-0.258c0.983-0.152,4.564-1.371,5.628-1.918
		c1.058-0.549,2.123-0.979,2.417-1.084c0.297-0.103,0.61-0.325,0.586-0.457c-0.023-0.135-0.456-0.029-1.373-0.302
		c-0.916-0.272-1.443-0.633-2.146-0.762c-0.708-0.132-1.491,0.138-1.907,0.533s-0.775,0.952-0.792,1.137
		c-0.019,0.181,0.062,0.234,0.051,0.402c-0.007,0.17-0.249,0.41-0.416,0.328c-0.167-0.08-0.508-0.299-0.429-0.496
		c0.081-0.199,0.268-0.164,0.396-0.31c0.13-0.146,0.054-0.029,0.393-0.466c0.335-0.437,0.684-1.028,1.334-1.236
		c0.65-0.211,1.38-0.229,2.153,0.091c0.772,0.319,1.245,0.451,1.619,0.577c0.371,0.129,0.847,0.199,0.911,0.132
		c0.066-0.073,0.191-0.24,0.127-0.331c-0.063-0.091-0.547-0.126-1.384-0.8c-0.833-0.674-1.078-0.996-1.497-2.109
		c-0.422-1.113-0.508-1.081-0.79-1.242s-0.3-0.076-0.425,0c-0.123,0.079-0.35,0-0.394-0.085c-0.048-0.088-0.163-0.378,0.135-0.633
		s0.508-0.085,0.568,0.091s0.229,0.255,0.606,0.694c0.378,0.437,0.538,1.151,0.775,1.693c0.237,0.539,1.009,1.16,1.282,1.412
		c0.274,0.252,0.709,0.571,0.776,0.601c0.069,0.026,0.076-0.015,0.076-0.015V15.528z"/>
	<linearGradient id="SVGID_3_" gradientUnits="userSpaceOnUse" x1="2.1201" y1="19.6104" x2="34.146" y2="19.6104">
		<stop  offset="0.0056" style="stop-color:#FFFFFF"/>
		<stop  offset="0.0758" style="stop-color:#E0F3D4"/>
		<stop  offset="0.1686" style="stop-color:#BCE4A3"/>
		<stop  offset="0.2663" style="stop-color:#9DD877"/>
		<stop  offset="0.3672" style="stop-color:#82CD53"/>
		<stop  offset="0.472" style="stop-color:#6CC435"/>
		<stop  offset="0.5821" style="stop-color:#5BBD1D"/>
		<stop  offset="0.6999" style="stop-color:#4FB90D"/>
		<stop  offset="0.8305" style="stop-color:#48B603"/>
		<stop  offset="1" style="stop-color:#46B500"/>
	</linearGradient>
	<path fill-rule="evenodd" clip-rule="evenodd" fill="url(#SVGID_3_)" d="M15.66,17.086c-0.034,0.05-2.701,1.945-4.252,2.261
		c-1.551,0.322-5.71,1.646-6.86,2.453c-1.548,1.084-2.81,2.824-2.32,4.822c0.24,0.986,0.53,1.752,1.386,2.199
		c0.854,0.443,1.415,0.375,2.067,0.146c0.65-0.229,1.296-0.697,1.39-0.797c0.095-0.1,0.517-0.313,0.176,0.375
		c-0.341,0.695-0.51,1.248-0.425,1.793c0.088,0.545,0.504,1.094,0.908,1.287l0.066,0.031l0.047-0.006
		c1.346-0.166,1.771-0.465,1.771-0.465l0.007,0.018c0.057-0.039,0.104-0.063,0.104-0.063s0.253-0.16,0.57-0.135
		c0.315,0.029,0.715,1.668,1.167,2.16c0.454,0.498,1.367,0.84,2.392,0.283c1.027-0.563,1.581-1.014,2.111-2.232
		c0.532-1.215,0.668-4.465,1.26-6.02c0.586-1.553,0.647-2.705,0.735-3.34c0.091-0.637-0.026-1.51-0.026-1.51l0.105-0.188
		c0,0,1.245,3.563,1.134,5.043c-0.114,1.484,0.22,3.469,0.439,4.477s0.753,2.504,1.972,2.994c1.222,0.486,1.901-0.123,2.648-1.096
		c0.744-0.973,0.668-1.143,1.137-1.264c0.469-0.123,1.553,0.15,2.174-0.299c0.621-0.447,0.858-1.102,0.838-1.531
		c-0.021-0.426-0.079-0.666,0.182-0.801c0.255-0.131,1.412-0.469,1.79-0.465c0.378,0,1.33-0.104,1.931-0.879
		c0.598-0.768,0.718-1.428,0.489-2.207c-0.229-0.781-1.389-1.941-2.2-2.508c-0.809-0.564-3.396-1.828-4.459-2.117
		c-1.063-0.293-3.018-1.018-4.392-1.369c-1.377-0.354-1.948-0.512-2.165-0.611c-0.22-0.104-0.527-0.098-0.56-0.193
		c-0.029-0.097-0.023-0.384,1.078-0.115c1.102,0.269,2.61,0.544,3.533,0.949c0.929,0.408,2.335,0.959,3.806,1.164
		c1.474,0.205,2.845,0.102,3.935-0.322c1.087-0.426,1.608-0.76,2.048-1.313c0.439-0.557,0.636-0.765,0.577-1.161
		s-0.103-0.686,0.097-0.683c0.012,0,0.026,0.003,0.047,0.009l-0.006-0.047c-0.129-0.855-0.035-1.192,0.035-1.503
		c-0.105-0.041-0.179-0.079-0.229-0.12c-0.193-0.155-0.313-0.448-0.563-0.545c-0.252-0.097-0.501-0.032-0.612-0.141
		c-0.108-0.108-0.12-0.369,0.117-0.732c0.243-0.363,0.451-1.087,0.434-1.714c-0.023-0.627-0.158-0.741-0.489-1.046
		c-0.331-0.302-0.809-0.466-1.225-0.36c-0.413,0.103-0.524,0.097-0.536-0.059c-0.018-0.158,0.079-0.352,0.196-0.662
		c0.108-0.313,0.29-1.389,0.082-2.039s-0.445-1.395-2.156-1.412c-1.714-0.018-3.006,0.451-3.703,1.061s-1.872,1.664-2.76,2.672
		c-0.894,1.011-1.945,3.275-2.461,4.271c-0.513,0.993-0.908,1.781-1.257,2.06c-0.349,0.272-0.694,0.322-0.759,0.463
		c-0.067,0.138,0.035,0.311,0.161,0.375c0.129,0.064,0.674,0.015,1.184-0.407c0.507-0.425,1.655-2.054,1.837-2.303
		c0.185-0.255,1.412-2.036,1.661-2.276c0.252-0.24,0.738-0.606,0.894-0.653c0.149-0.05,0.226-0.164,0.375-0.255
		c0.152-0.097,0.466-0.185,0.63,0.009s0.211,0.498,0.038,0.642c-0.17,0.144-0.454,0.141-0.536,0.023
		c-0.079-0.12-0.155-0.354-0.671,0.026c-0.513,0.381-1.137,1.365-1.482,1.852c-0.34,0.486-1.26,1.784-1.547,2.156
		c-0.293,0.369-0.92,1.034-1.339,1.192c-0.425,0.155-0.63,0.105-0.715,0.144c-0.091,0.041-0.038,0.22,0.032,0.229
		c0.064,0.006,1.4-0.062,2.229-0.39c0.832-0.322,2.03-0.688,2.903-1.239s1.922-0.782,2.508-0.612
		c0.586,0.179,0.765,0.363,0.876,0.709c0.105,0.352,0.038,0.513,0.182,0.729c0.141,0.211,0.316,0.328,0.141,0.431
		c-0.179,0.103-0.305,0.193-0.548,0.088s-0.504-0.24-0.445-0.425c0.053-0.185,0.243-0.354,0.34-0.311
		c0.094,0.041,0.217-0.091,0.047-0.316c-0.167-0.226-0.398-0.688-1.567-0.393c-1.163,0.296-2.051,0.938-2.883,1.23
		c-0.829,0.296-2.452,0.592-2.774,0.618c-0.325,0.023-0.759,0.117-1.034,0.132c-0.275,0.018-0.56,0.217-0.46,0.414
		c0.094,0.195,1.178,1.037,1.928,1.537c0.747,0.496,1.359,0.551,2.707,0.619c1.348,0.061,1.819,0.393,2.156,0.68
		c0.34,0.281,0.448,0.342,0.524,0.299c0.079-0.047,0.255-0.029,0.352,0.078c0.097,0.109,0.097,0.305-0.041,0.514
		c-0.138,0.201-0.24,0.277-0.419,0.213c-0.179-0.07-0.352-0.246-0.313-0.381c0.032-0.135-0.064-0.393-0.571-0.576
		c-0.507-0.18-1.16-0.316-2.227-0.416c-1.066-0.098-2.06-0.338-2.839-0.977c-0.776-0.639-1.137-0.943-1.128-0.885
		s0.062,0.129,0.999,1.041c0.94,0.908,1.62,2.428,1.86,3.293c0.237,0.863,0.548,2.246,0.466,2.736
		c-0.088,0.492-0.202,0.861-0.302,1.08c-0.103,0.221-0.07,0.256-0.105,0.361c-0.032,0.107-0.021,0.225-0.152,0.313
		s-0.384-0.07-0.454-0.188c-0.067-0.117-0.196-0.299-0.091-0.482c0.108-0.182,0.205-0.287,0.346-0.197
		c0.138,0.086,0.146,0.145,0.234,0.023c0.088-0.117,0.319-0.547,0.167-1.512c-0.152-0.967-0.592-2.445-1.031-3.225
		c-0.439-0.785-1.09-1.711-1.652-2.359c-0.56-0.645-0.814-1.072-0.973-1.197c-0.158-0.123-0.24-0.064-0.322,0.254
		c-0.079,0.32-0.135,0.596-0.34,1.225c-0.202,0.633-1.456,2.447-1.688,2.922c-0.233,0.471-0.757,1.443-0.75,2.164
		c0.007,0.727,0.031,0.537,0.104,0.689c0.075,0.146,0.207,0.271,0.042,0.41c-0.164,0.135-0.416,0.066-0.568-0.063
		c-0.154-0.129-0.262-0.418-0.138-0.576c0.123-0.158,0.249-0.578,0.271-0.738c0.022-0.156,0.057-0.877,0.564-1.891
		s1.256-2.08,1.486-2.508c0.239-0.424,0.822-1.746,0.813-1.992c-0.012-0.24-0.015-0.521-0.229-0.442
		c-0.209,0.083-0.383,0.717-0.532,1.01s-0.539,0.896-1.008,1.406c-0.47,0.51-2.175,1.764-2.607,2.014
		c-0.434,0.252-1.148,0.316-1.201,0.43c-0.056,0.115,0.003,0.244-0.095,0.35c-0.1,0.1-0.316,0.1-0.454-0.035
		c-0.139-0.141-0.34-0.486-0.256-0.627c0.083-0.145,0.352-0.203,0.636-0.127c0.287,0.082,1.276-0.207,2.115-0.902
		c0.844-0.697,1.63-1.471,1.948-1.857c0.313-0.393,0.642-0.869,0.773-1.084c0.132-0.207,0.249-0.457,0.205-0.585
		c-0.043-0.126-0.168-0.196-0.331-0.231c-0.167-0.029-0.171-0.079-0.288-0.018S15.66,17.086,15.66,17.086z"/>
</g>
</svg>
