<?xml version="1.0" encoding="utf-8"?>
<!-- Generator: Adobe Illustrator 15.0.0, SVG Export Plug-In . SVG Version: 6.00 Build 0)  -->
<!DOCTYPE svg PUBLIC "-//W3C//DTD SVG 1.1//EN" "http://www.w3.org/Graphics/SVG/1.1/DTD/svg11.dtd">
<svg version="1.1" id="图层_1" xmlns="http://www.w3.org/2000/svg" xmlns:xlink="http://www.w3.org/1999/xlink" x="0px" y="0px"
	 width="34.146px" height="33.738px" viewBox="0 0 34.146 33.738" enable-background="new 0 0 34.146 33.738" xml:space="preserve">
<g>
	<linearGradient id="SVGID_1_" gradientUnits="userSpaceOnUse" x1="6.6626" y1="8.4009" x2="22.9272" y2="8.4009">
		<stop  offset="0.0056" style="stop-color:#FFFFFF"/>
		<stop  offset="0.1019" style="stop-color:#D0F2FF"/>
		<stop  offset="0.2056" style="stop-color:#A5E7FF"/>
		<stop  offset="0.3148" style="stop-color:#80DCFF"/>
		<stop  offset="0.4283" style="stop-color:#62D4FF"/>
		<stop  offset="0.5476" style="stop-color:#4BCEFF"/>
		<stop  offset="0.675" style="stop-color:#3BC9FF"/>
		<stop  offset="0.8165" style="stop-color:#31C7FF"/>
		<stop  offset="1" style="stop-color:#2EC6FF"/>
	</linearGradient>
	<path fill-rule="evenodd" clip-rule="evenodd" fill="url(#SVGID_1_)" d="M18.316,15.998c0,0,0.397-0.17,0.714-0.803
		c0.314-0.629,0.811-2.31,1.213-3.878s0.375-2.44,0.786-3.455c0.406-1.013,1.459-2.321,1.581-2.722
		c0.119-0.404,0.768-1.489-0.229-2.741c-0.993-1.246-2.059-0.719-2.502-0.472c-0.442,0.25-0.458,0.399-0.696,0.242
		c-0.238-0.158-1.803-1.857-2.966-1.619c-1.168,0.24-1.565,1.015-1.619,1.372c-0.054,0.353-0.063,0.404-0.436,0.353
		c-0.37-0.043-1.182-0.695-2.616-0.075c-1.433,0.62-1.313,1.092-1.442,1.174C9.971,3.45,9.78,3.375,9.238,3.177
		C8.695,2.98,8.01,2.829,7.253,3.259c-0.757,0.435-0.6,0.896-0.521,1.081C6.815,4.525,7.139,4.88,8.688,6.188
		c1.552,1.306,3.145,3.391,3.6,3.978c0.456,0.589,1.77,3.199,2.118,3.897c0.346,0.696,0.486,0.919,0.486,0.919
		s0.002-0.117-0.079-0.521c-0.083-0.398-0.036-0.807-0.049-1.37c-0.016-0.564-0.164-1.905-0.389-2.555
		c-0.225-0.651-0.654-1.615-1.105-2.005c-0.452-0.393-0.474-0.293-0.503-0.208c-0.029,0.084-0.114,0.208-0.298,0.135
		c-0.183-0.075-0.306-0.404-0.029-0.702c0.274-0.293,0.509-0.228,0.588-0.128c0.076,0.099-0.043,0.227,0.038,0.352
		c0.081,0.128,0.719,0.589,1.018,1.085c0.298,0.494,0.631,1.835,0.79,2.418c0.16,0.581,0.054,2.749,0.157,3.276
		c0.104,0.527,0.382,0.938,0.669,1.128c0.288,0.187,0.723,0.417,0.867,0.384c0.144-0.031,0.29-0.179,0.157-0.345
		c-0.13-0.163-0.425-0.624-0.507-0.988c-0.083-0.364-0.081-1.063,0.137-1.975c0.216-0.909,0.56-2.166,0.523-2.641
		c-0.036-0.477-0.076-0.813-0.123-0.896c-0.047-0.08-0.083-0.086-0.167-0.057c-0.085,0.029-0.303-0.119-0.323-0.265
		c-0.021-0.147,0.198-0.448,0.397-0.463c0.2-0.016,0.432,0.22,0.445,0.395c0.013,0.172-0.153,0.287-0.092,0.523
		c0.063,0.238,0.045,1.209,0.011,1.467c-0.036,0.256-0.215,0.977-0.449,1.963s-0.191,1.712,0.016,2.113
		c0.207,0.404,0.366,0.764,0.613,0.836c0.245,0.075,0.514,0.133,0.669-0.069c0.159-0.198,0.379-0.712,0.431-1.209
		c0.052-0.494,0-1.521-0.02-2.153c-0.022-0.631,0-1.626,0.16-2.021c0.157-0.391,0.379-0.711,0.397-0.832
		c0.018-0.122-0.072-0.272-0.032-0.373c0.041-0.1,0.268-0.256,0.476-0.113c0.211,0.141,0.343,0.34,0.247,0.561
		c-0.096,0.222-0.285,0.154-0.439,0.231c-0.156,0.077-0.611,0.858-0.56,1.837c0.056,0.982,0.193,2.07,0.072,2.696
		c-0.121,0.624-0.523,1.152-0.492,1.324c0.032,0.167,0.036,0.194,0.081,0.216C18.237,16.055,18.316,15.998,18.316,15.998z"/>
	<linearGradient id="SVGID_2_" gradientUnits="userSpaceOnUse" x1="18.5161" y1="12.1919" x2="34.1738" y2="12.1919">
		<stop  offset="0.0056" style="stop-color:#FFFFFF"/>
		<stop  offset="0.1019" style="stop-color:#D0F2FF"/>
		<stop  offset="0.2056" style="stop-color:#A5E7FF"/>
		<stop  offset="0.3148" style="stop-color:#80DCFF"/>
		<stop  offset="0.4283" style="stop-color:#62D4FF"/>
		<stop  offset="0.5476" style="stop-color:#4BCEFF"/>
		<stop  offset="0.675" style="stop-color:#3BC9FF"/>
		<stop  offset="0.8165" style="stop-color:#31C7FF"/>
		<stop  offset="1" style="stop-color:#2EC6FF"/>
	</linearGradient>
	<path fill-rule="evenodd" clip-rule="evenodd" fill="url(#SVGID_2_)" d="M18.868,15.801c0.088-0.079,0.659-0.979,0.988-2.195
		c0.331-1.215,0.647-2.292,1.099-3.953c0.449-1.661,0.97-3.36,1.628-4.007c0.656-0.644,1.159-1.511,2.426-1.795
		c1.265-0.283,1.613,0.229,1.834,0.714c0.219,0.488,0.225,0.554,0.441,0.355c0.217-0.2,1.146-1.028,1.993-0.13
		c0.847,0.895,0.736,2.695,0.705,3.194C29.946,8.485,30.03,8.657,30.5,8.66c0.473,0.004,0.959-0.232,1.457,0.306
		c0.5,0.539,0.467,1.659,0.394,2.2c-0.074,0.544-0.579,1.8-0.332,2.246c0.246,0.448,1.469,1.396,1.765,2.052
		c0.295,0.655,0.711,2.234-0.01,3.278c-0.72,1.045-1.797,1.804-3.271,1.862c-1.466,0.057-2.362-0.104-3.347-0.254
		c-0.981-0.149-4.567-1.349-5.63-1.888c-1.064-0.541-2.127-0.962-2.421-1.064c-0.298-0.104-0.611-0.322-0.587-0.455
		c0.025-0.132,0.457-0.026,1.373-0.295c0.919-0.267,1.444-0.618,2.152-0.748c0.706-0.13,1.489,0.136,1.907,0.524
		c0.416,0.389,0.772,0.936,0.793,1.117c0.017,0.181-0.061,0.231-0.053,0.397c0.006,0.166,0.251,0.4,0.418,0.322
		c0.168-0.08,0.509-0.296,0.428-0.49c-0.079-0.194-0.264-0.161-0.396-0.302c-0.127-0.146-0.054-0.027-0.39-0.461
		c-0.335-0.428-0.686-1.01-1.339-1.215c-0.649-0.206-1.381-0.223-2.154,0.092c-0.772,0.316-1.247,0.441-1.619,0.567
		s-0.847,0.194-0.914,0.128c-0.065-0.07-0.191-0.236-0.126-0.324c0.065-0.093,0.551-0.126,1.386-0.783
		c0.833-0.664,1.078-0.982,1.499-2.076c0.421-1.097,0.507-1.064,0.79-1.225c0.281-0.161,0.301-0.075,0.424,0.002
		c0.122,0.077,0.351,0,0.398-0.083c0.044-0.086,0.161-0.371-0.137-0.623c-0.299-0.254-0.51-0.086-0.57,0.088
		c-0.059,0.172-0.227,0.252-0.606,0.682c-0.378,0.433-0.54,1.136-0.775,1.668c-0.238,0.531-1.011,1.138-1.285,1.388
		c-0.271,0.247-0.708,0.563-0.777,0.591c-0.067,0.026-0.074-0.014-0.074-0.014V15.801z"/>
	<linearGradient id="SVGID_3_" gradientUnits="userSpaceOnUse" x1="-3.9512" y1="19.812" x2="28.0889" y2="19.812">
		<stop  offset="0.0056" style="stop-color:#FFFFFF"/>
		<stop  offset="0.1019" style="stop-color:#D0F2FF"/>
		<stop  offset="0.2056" style="stop-color:#A5E7FF"/>
		<stop  offset="0.3148" style="stop-color:#80DCFF"/>
		<stop  offset="0.4283" style="stop-color:#62D4FF"/>
		<stop  offset="0.5476" style="stop-color:#4BCEFF"/>
		<stop  offset="0.675" style="stop-color:#3BC9FF"/>
		<stop  offset="0.8165" style="stop-color:#31C7FF"/>
		<stop  offset="1" style="stop-color:#2EC6FF"/>
	</linearGradient>
	<path fill-rule="evenodd" clip-rule="evenodd" fill="url(#SVGID_3_)" d="M18.498,17.33c0.034,0.047,2.704,1.91,4.256,2.227
		c1.552,0.317,5.717,1.616,6.867,2.409c1.005,0.693,1.656,1.465,2.1,2.441c0.199,0.444,0.465,1.322,0.223,2.295
		c-0.24,0.974-0.528,1.725-1.387,2.166c-0.854,0.44-1.418,0.371-2.068,0.146c-0.655-0.225-1.296-0.686-1.393-0.782
		c-0.096-0.097-0.52-0.309-0.173,0.371c0.341,0.676,0.51,1.226,0.421,1.762c-0.086,0.536-0.502,1.071-0.907,1.265l-0.062,0.028
		l-0.053-0.004c-1.346-0.165-1.77-0.46-1.77-0.46l-0.009,0.019c-0.056-0.037-0.104-0.059-0.104-0.059s-0.254-0.162-0.57-0.136
		c-0.317,0.028-0.717,1.64-1.17,2.124c-0.453,0.486-1.366,0.83-2.392,0.279c-1.026-0.555-1.583-1-2.116-2.193
		c-0.532-1.195-0.667-4.396-1.257-5.92c-0.588-1.528-0.651-2.662-0.741-3.287c-0.087-0.624,0.029-1.484,0.029-1.484l-0.107-0.179
		c0,0-1.244,3.502-1.132,4.956c0.113,1.458-0.219,3.41-0.439,4.401c-0.223,0.992-0.757,2.462-1.977,2.943
		c-1.22,0.48-1.902-0.119-2.648-1.073c-0.746-0.957-0.669-1.129-1.139-1.247c-0.471-0.119-1.554,0.148-2.173-0.291
		c-0.625-0.442-0.864-1.086-0.84-1.505c0.022-0.42,0.077-0.658-0.182-0.79c-0.258-0.129-1.413-0.458-1.792-0.458
		c-0.38,0.004-1.332-0.101-1.932-0.857c-0.599-0.762-0.718-1.406-0.49-2.175c0.229-0.768,1.392-1.909,2.202-2.466
		c0.809-0.558,3.4-1.795,4.462-2.082c1.064-0.287,3.021-0.998,4.397-1.347c1.376-0.349,1.947-0.501,2.167-0.601
		c0.215-0.1,0.527-0.095,0.559-0.192c0.03-0.09,0.023-0.375-1.078-0.11c-1.103,0.268-2.612,0.537-3.542,0.935
		c-0.93,0.396-2.333,0.94-3.806,1.139c-1.471,0.203-2.846,0.106-3.937-0.313c-1.091-0.419-1.612-0.747-2.05-1.292
		c-0.688-0.854-1.278-3.482,0.041-3.978c0.25-0.095,0.5-0.033,0.61-0.139c0.109-0.11,0.124-0.361-0.114-0.722
		c-0.241-0.359-0.451-1.068-0.433-1.685c0.021-0.618,0.157-0.729,0.489-1.028c0.332-0.298,0.81-0.457,1.224-0.355
		c0.413,0.106,0.526,0.097,0.539-0.057C3.119,9.811,3.02,9.622,2.907,9.317C2.795,9.01,2.611,7.949,2.822,7.312
		c0.207-0.642,0.444-1.375,2.158-1.39C6.694,5.906,7.99,6.365,8.688,6.965c0.699,0.6,1.871,1.635,2.763,2.63
		c0.889,0.993,1.947,3.218,2.461,4.196c0.515,0.979,0.91,1.751,1.257,2.023c0.351,0.271,0.692,0.317,0.759,0.457
		c0.07,0.139-0.032,0.306-0.159,0.368c-0.128,0.066-0.679,0.016-1.186-0.399c-0.51-0.417-1.653-2.019-1.84-2.266
		c-0.184-0.245-1.414-2.003-1.661-2.237c-0.252-0.239-0.741-0.594-0.894-0.642c-0.153-0.046-0.227-0.159-0.375-0.251
		c-0.153-0.093-0.465-0.179-0.631,0.011c-0.167,0.189-0.211,0.487-0.039,0.63c0.173,0.14,0.456,0.137,0.535,0.022
		c0.081-0.117,0.155-0.351,0.671,0.022c0.515,0.375,1.141,1.348,1.485,1.827c0.343,0.479,1.262,1.752,1.551,2.116
		c0.29,0.366,0.917,1.019,1.338,1.172c0.425,0.156,0.629,0.105,0.717,0.145c0.088,0.038,0.039,0.216-0.029,0.225
		c-0.07,0.005-1.409-0.063-2.237-0.383c-0.833-0.317-2.033-0.677-2.906-1.22c-0.872-0.54-1.925-0.77-2.511-0.598
		c-0.586,0.172-0.763,0.353-0.874,0.695c-0.107,0.344-0.041,0.503-0.182,0.715c-0.143,0.21-0.318,0.322-0.142,0.423
		c0.178,0.102,0.304,0.192,0.546,0.086c0.248-0.104,0.505-0.234,0.449-0.417c-0.056-0.181-0.245-0.347-0.341-0.307
		c-0.092,0.04-0.216-0.088-0.049-0.307c0.17-0.225,0.399-0.677,1.567-0.388c1.17,0.289,2.055,0.922,2.891,1.208
		c0.831,0.292,2.453,0.587,2.776,0.609c0.325,0.022,0.759,0.115,1.035,0.13c0.274,0.016,0.558,0.214,0.462,0.406
		c-0.099,0.192-1.183,1.017-1.933,1.51c-0.748,0.491-1.359,0.547-2.706,0.608c-1.353,0.064-1.822,0.389-2.161,0.669
		c-0.338,0.282-0.449,0.339-0.525,0.293c-0.079-0.044-0.252-0.026-0.351,0.081c-0.096,0.105-0.096,0.299,0.04,0.5
		c0.138,0.206,0.24,0.271,0.418,0.21c0.18-0.064,0.351-0.237,0.317-0.371c-0.034-0.136,0.065-0.384,0.57-0.564
		c0.509-0.181,1.161-0.313,2.228-0.411c1.069-0.097,2.062-0.333,2.841-0.96c0.78-0.628,1.137-0.928,1.128-0.871
		c-0.007,0.054-0.061,0.129-0.999,1.024c-0.939,0.892-1.617,2.386-1.858,3.235c-0.24,0.851-0.552,2.206-0.467,2.692
		c0.085,0.484,0.197,0.851,0.299,1.063c0.103,0.214,0.071,0.249,0.107,0.356c0.034,0.1,0.022,0.22,0.153,0.305
		c0.13,0.087,0.386-0.07,0.451-0.183c0.072-0.114,0.2-0.294,0.092-0.474c-0.105-0.182-0.205-0.285-0.344-0.199
		c-0.142,0.088-0.148,0.145-0.238,0.028c-0.088-0.119-0.315-0.54-0.164-1.489c0.148-0.948,0.593-2.404,1.031-3.174
		c0.437-0.771,1.093-1.68,1.655-2.316c0.561-0.634,0.816-1.055,0.974-1.177c0.155-0.123,0.236-0.063,0.319,0.251
		c0.083,0.313,0.14,0.583,0.339,1.205c0.205,0.62,1.459,2.404,1.691,2.868c0.231,0.468,0.761,1.424,0.75,2.131
		c-0.007,0.71-0.032,0.527-0.106,0.676c-0.072,0.144-0.204,0.269-0.041,0.401c0.166,0.135,0.416,0.068,0.57-0.06
		c0.153-0.127,0.261-0.41,0.137-0.567c-0.124-0.155-0.25-0.564-0.271-0.721c-0.021-0.157-0.056-0.865-0.564-1.865
		c-0.507-0.995-1.255-2.041-1.491-2.462c-0.236-0.419-0.819-1.718-0.811-1.957c0.014-0.238,0.018-0.514,0.227-0.437
		c0.213,0.078,0.386,0.706,0.535,0.993c0.15,0.285,0.539,0.883,1.008,1.383c0.472,0.502,2.179,1.733,2.61,1.98
		c0.436,0.247,1.15,0.311,1.204,0.424c0.054,0.109-0.002,0.239,0.094,0.343c0.097,0.099,0.321,0.099,0.457-0.038
		c0.139-0.138,0.341-0.476,0.256-0.614c-0.083-0.141-0.354-0.199-0.641-0.123c-0.284,0.08-1.271-0.205-2.113-0.892
		c-0.844-0.679-1.633-1.442-1.947-1.825c-0.319-0.382-0.645-0.856-0.777-1.061c-0.133-0.206-0.251-0.45-0.207-0.576
		s0.17-0.194,0.334-0.229c0.164-0.033,0.166-0.077,0.285-0.018C18.421,17.321,18.498,17.33,18.498,17.33z"/>
</g>
</svg>
