<?xml version="1.0" encoding="utf-8"?>
<!-- Generator: Adobe Illustrator 15.0.0, SVG Export Plug-In . SVG Version: 6.00 Build 0)  -->
<!DOCTYPE svg PUBLIC "-//W3C//DTD SVG 1.1//EN" "http://www.w3.org/Graphics/SVG/1.1/DTD/svg11.dtd">
<svg version="1.1" id="图层_1" xmlns="http://www.w3.org/2000/svg" xmlns:xlink="http://www.w3.org/1999/xlink" x="0px" y="0px"
	 width="50.323px" height="50.619px" viewBox="-6.75 -6 50.323 50.619" enable-background="new -6.75 -6 50.323 50.619"
	 xml:space="preserve">
<g>
	<linearGradient id="SVGID_1_" gradientUnits="userSpaceOnUse" x1="5.1956" y1="3.5911" x2="38.085" y2="11.7913">
		<stop  offset="0.0056" style="stop-color:#FFFFFF"/>
		<stop  offset="0.0758" style="stop-color:#FFD4F0"/>
		<stop  offset="0.1686" style="stop-color:#FFA3DE"/>
		<stop  offset="0.2663" style="stop-color:#FF77CE"/>
		<stop  offset="0.3672" style="stop-color:#FF53C1"/>
		<stop  offset="0.472" style="stop-color:#FF35B6"/>
		<stop  offset="0.5821" style="stop-color:#FF1DAE"/>
		<stop  offset="0.6999" style="stop-color:#FF0DA8"/>
		<stop  offset="0.8305" style="stop-color:#FF03A4"/>
		<stop  offset="1" style="stop-color:#FF00A3"/>
	</linearGradient>
	<path fill-rule="evenodd" clip-rule="evenodd" fill="url(#SVGID_1_)" d="M16.204,17.674c0,0-0.489-0.379-0.706-1.375
		c-0.214-0.99-0.313-3.518-0.322-5.862c-0.009-2.341,0.331-3.557,0.123-5.12c-0.211-1.564-1.21-3.76-1.236-4.368
		C14.036,0.34,13.52-1.406,15.331-2.82c1.808-1.414,3.094-0.311,3.621,0.189c0.524,0.5,0.492,0.724,0.873,0.579
		c0.384-0.142,3.138-1.994,4.664-1.258c1.526,0.732,1.805,1.958,1.755,2.477c-0.047,0.519-0.053,0.59,0.475,0.649
		c0.53,0.06,1.875-0.574,3.639,0.787c1.767,1.359,1.433,1.985,1.585,2.14c0.155,0.158,0.442,0.113,1.263,0.021
		c0.817-0.089,1.813-0.07,2.704,0.797c0.896,0.864,0.521,1.46,0.346,1.695c-0.176,0.233-0.747,0.621-3.346,1.925
		c-2.596,1.31-5.52,3.688-6.354,4.359c-0.832,0.674-3.557,3.893-4.28,4.752c-0.724,0.863-0.99,1.125-0.99,1.125
		s0.038-0.162,0.29-0.697c0.255-0.537,0.334-1.123,0.548-1.911c0.217-0.788,0.891-2.628,1.427-3.46
		c0.536-0.838,1.465-2.045,2.224-2.44c0.762-0.398,0.756-0.249,0.768-0.12c0.009,0.129,0.085,0.334,0.36,0.293
		c0.281-0.041,0.565-0.466,0.287-0.973s-0.624-0.495-0.765-0.387c-0.144,0.111-0.023,0.337-0.179,0.483
		c-0.149,0.152-1.195,0.577-1.781,1.178c-0.586,0.595-1.512,2.361-1.934,3.123s-1.031,3.844-1.356,4.553
		c-0.331,0.705-0.855,1.186-1.315,1.35c-0.463,0.168-1.148,0.344-1.333,0.246c-0.188-0.094-0.337-0.348-0.1-0.535
		s0.806-0.736,1.046-1.219c0.243-0.484,0.483-1.465,0.504-2.819c0.018-1.351-0.021-3.229,0.196-3.888
		c0.214-0.659,0.39-1.116,0.48-1.216s0.144-0.094,0.249-0.023c0.111,0.07,0.463-0.062,0.539-0.264
		c0.079-0.199-0.117-0.694-0.384-0.785c-0.272-0.094-0.674,0.161-0.753,0.398c-0.079,0.24,0.114,0.454-0.059,0.773
		c-0.17,0.313-0.48,1.682-0.521,2.054c-0.047,0.372-0.044,1.444-0.067,2.912c-0.021,1.468-0.331,2.47-0.759,2.968
		c-0.428,0.492-0.771,0.945-1.137,0.963c-0.363,0.018-0.756,0.01-0.902-0.324c-0.149-0.338-0.275-1.131-0.173-1.85
		c0.103-0.711,0.533-2.135,0.782-3.017c0.246-0.879,0.563-2.282,0.48-2.892c-0.079-0.606-0.275-1.128-0.258-1.304
		s0.193-0.36,0.173-0.516c-0.023-0.155-0.278-0.451-0.618-0.325c-0.34,0.132-0.592,0.366-0.536,0.706
		c0.059,0.346,0.34,0.316,0.527,0.478s0.545,1.418,0.126,2.774c-0.416,1.359-0.981,2.842-1.031,3.761
		c-0.053,0.924,0.319,1.803,0.214,2.027c-0.105,0.229-0.123,0.264-0.188,0.275S16.204,17.674,16.204,17.674z"/>
	<linearGradient id="SVGID_2_" gradientUnits="userSpaceOnUse" x1="-5.6125" y1="6.5813" x2="15.95" y2="11.9574">
		<stop  offset="0.0056" style="stop-color:#FFFFFF"/>
		<stop  offset="0.0758" style="stop-color:#FFD4F0"/>
		<stop  offset="0.1686" style="stop-color:#FFA3DE"/>
		<stop  offset="0.2663" style="stop-color:#FF77CE"/>
		<stop  offset="0.3672" style="stop-color:#FF53C1"/>
		<stop  offset="0.472" style="stop-color:#FF35B6"/>
		<stop  offset="0.5821" style="stop-color:#FF1DAE"/>
		<stop  offset="0.6999" style="stop-color:#FF0DA8"/>
		<stop  offset="0.8305" style="stop-color:#FF03A4"/>
		<stop  offset="1" style="stop-color:#FF00A3"/>
	</linearGradient>
	<path fill-rule="evenodd" clip-rule="evenodd" fill="url(#SVGID_2_)" d="M15.51,17.207c-0.094-0.141-0.565-1.596-0.598-3.418
		c-0.029-1.822-0.094-3.445-0.141-5.93c-0.038-2.487-0.17-5.054-0.85-6.185c-0.68-1.132-1.069-2.524-2.719-3.352
		C9.553-2.507,8.891-1.913,8.417-1.302C7.945-0.693,7.913-0.601,7.684-0.954C7.453-1.307,6.463-2.789,4.98-1.818
		c-1.479,0.965-1.96,3.539-2.086,4.25C2.771,3.146,2.593,3.354,1.942,3.202C1.292,3.047,0.703,2.55-0.173,3.135
		s-1.228,2.169-1.31,2.959C-1.571,6.882-1.31,8.82-1.805,9.359c-0.498,0.542-2.514,1.462-3.152,2.279
		c-0.636,0.82-1.764,2.897-1.134,4.612c0.63,1.717,1.854,3.148,3.867,3.729c2.01,0.584,3.299,0.668,4.708,0.795
		c1.409,0.119,6.776-0.338,8.432-0.732c1.655-0.396,3.27-0.627,3.715-0.668c0.445-0.045,0.952-0.244,0.964-0.438
		c0.012-0.195-0.618-0.193-1.79-0.881c-1.175-0.691-1.778-1.365-2.71-1.787c-0.929-0.426-2.106-0.322-2.813,0.084
		C7.57,16.756,6.885,17.4,6.797,17.65c-0.088,0.246,0.006,0.342-0.064,0.574c-0.07,0.229-0.483,0.477-0.688,0.311
		c-0.205-0.168-0.601-0.59-0.425-0.836c0.179-0.246,0.425-0.131,0.653-0.289c0.226-0.156,0.085-0.023,0.7-0.514
		c0.618-0.488,1.304-1.186,2.271-1.25c0.97-0.064,1.986,0.158,2.941,0.863c0.958,0.707,1.567,1.047,2.039,1.352
		c0.472,0.301,1.104,0.563,1.216,0.488c0.114-0.07,0.346-0.264,0.287-0.41c-0.059-0.148-0.715-0.363-1.638-1.576
		s-1.146-1.743-1.348-3.427c-0.196-1.682-0.331-1.664-0.662-1.989c-0.331-0.322-0.393-0.208-0.589-0.141
		c-0.193,0.064-0.48-0.12-0.516-0.255c-0.038-0.135-0.094-0.571,0.401-0.826c0.501-0.252,0.732,0.059,0.759,0.322
		c0.023,0.264,0.226,0.428,0.598,1.163s0.346,1.778,0.489,2.604c0.144,0.829,0.996,1.945,1.289,2.388
		c0.29,0.445,0.785,1.037,0.867,1.096c0.085,0.061,0.105,0.008,0.105,0.008L15.51,17.207z"/>
	<linearGradient id="SVGID_3_" gradientUnits="userSpaceOnUse" x1="-6.1526" y1="17.78" x2="34.8773" y2="28.0099">
		<stop  offset="0.0056" style="stop-color:#FFFFFF"/>
		<stop  offset="0.0758" style="stop-color:#FFD4F0"/>
		<stop  offset="0.1686" style="stop-color:#FFA3DE"/>
		<stop  offset="0.2663" style="stop-color:#FF77CE"/>
		<stop  offset="0.3672" style="stop-color:#FF53C1"/>
		<stop  offset="0.472" style="stop-color:#FF35B6"/>
		<stop  offset="0.5821" style="stop-color:#FF1DAE"/>
		<stop  offset="0.6999" style="stop-color:#FF0DA8"/>
		<stop  offset="0.8305" style="stop-color:#FF03A4"/>
		<stop  offset="1" style="stop-color:#FF00A3"/>
	</linearGradient>
	<path fill-rule="evenodd" clip-rule="evenodd" fill="url(#SVGID_3_)" d="M41.707,21.74l-0.946,3.814
		c-0.188,0.242-0.501,0.471-0.981,0.84c-0.791,0.615-1.629,0.896-3.278,1.117c-1.649,0.213-3.586-0.117-5.546-0.902
		c-1.957-0.789-3.712-2.031-4.854-2.906c-1.146-0.879-3.129-1.773-4.559-2.523c-1.433-0.75-1.538-0.352-1.526-0.211
		c0.006,0.145,0.439,0.244,0.706,0.461c0.264,0.211,0.999,0.623,2.777,1.582c1.778,0.961,4.23,2.625,5.602,3.393
		c1.368,0.768,4.512,3.393,5.435,4.453s2.13,3.059,2.177,4.215c0.047,1.158-0.343,2.025-1.433,2.889
		c-1.093,0.861-2.446,0.678-2.971,0.545c-0.519-0.129-2.227-0.061-2.631,0.033c-0.401,0.094-0.407,0.451-0.521,1.045
		c-0.117,0.596-0.671,1.422-1.685,1.828c-1.014,0.408-2.411-0.336-3.105-0.33c-0.691,0.006-0.645,0.271-2.007,1.359
		c-1.359,1.086-2.511,1.693-4.028,0.604c-1.515-1.09-1.743-3.344-1.699-4.811c0.041-1.469,0.261-4.328,0.923-6.334
		c0.665-2.008,0.167-7.352,0.167-7.352l-0.208,0.217c0,0-0.144,1.246-0.483,2.096s-0.82,2.42-2.168,4.365
		c-1.345,1.941-2.646,6.389-3.797,7.889c-1.151,1.498-2.074,1.938-3.683,2.359s-2.748-0.369-3.205-1.207
		c-0.457-0.842-0.448-3.24-0.876-3.385c-0.425-0.148-0.832-0.006-0.832-0.006s-0.073,0.012-0.167,0.047v-0.029
		c0,0-0.691,0.27-2.604,0.039l-0.076-0.01l-0.076-0.061c-0.492-0.408-0.879-1.305-0.809-2.09c0.064-0.785,0.489-1.49,1.195-2.332
		c0.709-0.834,0.053-0.688-0.108-0.576c-0.167,0.1-1.219,0.527-2.197,0.621c-0.976,0.096-1.778-0.004-2.807-0.912
		c-1.025-0.904-1.163-2.064-1.157-3.518c0.006-1.445,0.677-2.594,1.107-3.146c0.434-0.555,0.258-0.555,0.258-0.555
		s0.041,0.006-0.091-0.07c0.149-0.182,0.305-0.359,0.463-0.521c0.252,0.115,1.257-0.85,3.12-1.566
		c1.863-0.719,8.063-1.129,10.315-1.041s6.589-1.617,6.653-1.67c0,0,0.105,0.016,0.287-0.031c0.185-0.041,0.173,0.023,0.39,0.129
		c0.214,0.102,0.366,0.24,0.381,0.43c0.018,0.193-0.229,0.496-0.483,0.738c-0.255,0.246-0.873,0.801-1.444,1.23
		c-0.568,0.432-1.922,1.225-3.319,1.898c-1.406,0.678-2.868,0.738-3.234,0.531c-0.369-0.209-0.759-0.215-0.923-0.051
		c-0.167,0.17-0.009,0.713,0.138,0.953c0.144,0.24,0.445,0.313,0.615,0.205c0.173-0.109,0.135-0.311,0.249-0.445
		c0.117-0.139,1.128,0.012,1.811-0.188c0.683-0.197,3.469-1.342,4.292-1.885c0.823-0.545,1.567-1.248,1.875-1.602
		c0.305-0.352,0.762-1.176,1.081-1.213c0.319-0.039,0.229,0.352,0.161,0.693c-0.067,0.338-1.33,1.963-1.799,2.471
		c-0.472,0.512-1.869,1.725-2.918,2.955s-1.342,2.209-1.43,2.424c-0.082,0.213-0.398,0.746-0.627,0.922
		c-0.223,0.176-0.176,0.613-0.006,0.844c0.17,0.229,0.492,0.408,0.765,0.275c0.275-0.129,0.135-0.348,0.085-0.576
		c-0.05-0.232-0.146,0.018,0.091-0.984c0.234-1,1.298-2.162,1.778-2.736c0.48-0.572,2.833-2.654,3.331-3.457
		c0.498-0.807,0.668-1.16,0.894-1.574c0.22-0.416,0.352-0.469,0.527-0.242c0.176,0.225,0.381,0.896,0.932,1.982
		c0.554,1.084,1.14,2.59,1.477,3.82c0.337,1.234,0.442,3.428,0.319,4.811c-0.126,1.387-0.586,1.904-0.747,2.037
		c-0.161,0.135-0.155,0.049-0.319-0.117c-0.161-0.17-0.331-0.063-0.545,0.158c-0.208,0.217-0.094,0.512-0.038,0.697
		c0.053,0.182,0.352,0.488,0.563,0.412c0.208-0.076,0.234-0.242,0.319-0.377c0.082-0.139,0.053-0.199,0.267-0.463
		c0.217-0.268,0.498-0.738,0.785-1.395c0.284-0.648,0.331-2.664,0.296-3.938c-0.038-1.275-0.451-3.607-1.436-5.184
		s-1.034-1.695-1.025-1.781c0.009-0.082,0.398,0.463,1.257,1.611c0.853,1.148,2.145,1.82,3.583,2.318
		c1.441,0.504,2.294,0.914,2.936,1.338c0.636,0.428,0.683,0.813,0.592,0.99c-0.097,0.176,0.079,0.473,0.302,0.625
		c0.226,0.152,0.39,0.088,0.65-0.15c0.261-0.234,0.328-0.51,0.231-0.691c-0.097-0.178-0.331-0.266-0.454-0.229
		c-0.123,0.035-0.252-0.082-0.624-0.592c-0.369-0.51-0.902-1.127-2.748-1.678c-1.84-0.551-2.663-0.832-3.524-1.779
		c-0.867-0.949-2.071-2.479-2.142-2.779c-0.067-0.305,0.396-0.486,0.779-0.416c0.387,0.072,1.017,0.094,1.474,0.172
		c0.457,0.076,2.798,0.223,4.049,0.098c1.248-0.127,2.692-0.709,4.406-0.713c1.711-0.014,1.875,0.701,2.027,1.072
		c0.155,0.375-0.059,0.508-0.176,0.422c-0.117-0.09-0.437,0.074-0.58,0.316c-0.138,0.234,0.179,0.508,0.475,0.736
		c0.302,0.23,0.507,0.146,0.785,0.064c0.284-0.08,0.076-0.299-0.044-0.645c-0.123-0.346,0.026-0.545-0.003-1.064
		c-0.029-0.521-0.217-0.834-0.964-1.277c-0.753-0.441-2.282-0.475-3.674-0.014c-1.395,0.459-3.182,0.559-4.436,0.723
		c-1.257,0.162-3.129-0.199-3.22-0.234c-0.094-0.029-0.097-0.299,0.035-0.322c0.135-0.02,0.398,0.117,1.037,0.045
		c0.639-0.074,1.731-0.777,2.259-1.193c0.527-0.412,2.241-1.889,2.88-2.439c0.642-0.557,1.843-1.706,2.687-2.057
		c0.838-0.349,0.861,0,0.932,0.193c0.073,0.19,0.463,0.29,0.747,0.149c0.287-0.138,0.328-0.571,0.17-0.896
		c-0.164-0.325-0.627-0.308-0.867-0.226c-0.24,0.076-0.384,0.205-0.609,0.22c-0.229,0.012-1.028,0.352-1.453,0.598
		c-0.428,0.246-2.736,2.294-3.076,2.578c-0.343,0.285-2.481,2.143-3.328,2.549c-0.847,0.414-1.623,0.293-1.772,0.162
		c-0.161-0.133-0.24-0.404-0.1-0.574c0.141-0.174,0.633-0.123,1.21-0.381c0.577-0.264,1.389-1.213,2.44-2.414
		c1.052-1.199,3.284-3.964,4.86-5.054c1.579-1.093,3.554-2.147,4.731-2.754c1.175-0.606,3.12-0.806,5.481-0.196
		c2.353,0.609,2.429,1.72,2.496,2.687c0.064,0.97-0.557,2.396-0.82,2.789s-0.463,0.624-0.495,0.847s0.114,0.27,0.724,0.267
		s1.216,0.386,1.57,0.917c0.352,0.529,0.501,0.734,0.313,1.611c-0.188,0.873-0.727,1.795-1.181,2.217
		c-0.46,0.422-0.527,0.785-0.416,0.973c0.114,0.188,0.483,0.186,0.797,0.404c0.313,0.217,0.378,0.666,0.592,0.947L41.707,21.74z"/>
</g>
</svg>
