<?xml version="1.0" encoding="utf-8"?>
<!-- Generator: Adobe Illustrator 15.0.0, SVG Export Plug-In . SVG Version: 6.00 Build 0)  -->
<!DOCTYPE svg PUBLIC "-//W3C//DTD SVG 1.1//EN" "http://www.w3.org/Graphics/SVG/1.1/DTD/svg11.dtd">
<svg version="1.1" id="图层_1" xmlns="http://www.w3.org/2000/svg" xmlns:xlink="http://www.w3.org/1999/xlink" x="0px" y="0px"
	 width="34.146px" height="33.738px" viewBox="0 0 34.146 33.738" enable-background="new 0 0 34.146 33.738" xml:space="preserve">
<g>
	<linearGradient id="SVGID_1_" gradientUnits="userSpaceOnUse" x1="11.6143" y1="25.0981" x2="26.7031" y2="25.0981">
		<stop  offset="0.0056" style="stop-color:#FFFFFF"/>
		<stop  offset="0.0758" style="stop-color:#FFF7D4"/>
		<stop  offset="0.1686" style="stop-color:#FFEEA3"/>
		<stop  offset="0.2663" style="stop-color:#FFE577"/>
		<stop  offset="0.3672" style="stop-color:#FFDF53"/>
		<stop  offset="0.472" style="stop-color:#FFD935"/>
		<stop  offset="0.5821" style="stop-color:#FFD51D"/>
		<stop  offset="0.6999" style="stop-color:#FFD10D"/>
		<stop  offset="0.8305" style="stop-color:#FFD003"/>
		<stop  offset="1" style="stop-color:#FFCF00"/>
	</linearGradient>
	<path fill-rule="evenodd" clip-rule="evenodd" fill="url(#SVGID_1_)" d="M15.893,17.923c0,0-0.368,0.161-0.662,0.756
		c-0.293,0.601-0.751,2.186-1.124,3.665c-0.375,1.482-0.349,2.309-0.731,3.261c-0.378,0.958-1.355,2.194-1.466,2.572
		c-0.111,0.381-0.713,1.406,0.209,2.587c0.923,1.178,1.913,0.683,2.326,0.445c0.409-0.231,0.422-0.378,0.643-0.226
		c0.22,0.149,1.673,1.755,2.754,1.526c1.083-0.226,1.452-0.958,1.5-1.295c0.053-0.334,0.059-0.381,0.403-0.334
		c0.346,0.044,1.099,0.659,2.427,0.07c1.332-0.586,1.22-1.031,1.34-1.104c0.123-0.076,0.299-0.006,0.801,0.185
		c0.504,0.185,1.14,0.328,1.842-0.079c0.703-0.41,0.555-0.847,0.481-1.02c-0.073-0.176-0.376-0.513-1.813-1.743
		c-1.438-1.236-2.917-3.205-3.341-3.756c-0.422-0.56-1.639-3.021-1.964-3.683c-0.321-0.659-0.448-0.867-0.448-0.867
		s-0.001,0.111,0.073,0.489s0.035,0.762,0.047,1.295c0.013,0.53,0.149,1.799,0.359,2.411c0.208,0.615,0.606,1.526,1.027,1.896
		c0.416,0.372,0.439,0.278,0.466,0.196c0.026-0.079,0.105-0.196,0.275-0.129c0.168,0.067,0.284,0.381,0.029,0.662
		c-0.255,0.278-0.475,0.214-0.548,0.123c-0.072-0.091,0.04-0.214-0.035-0.334s-0.667-0.557-0.943-1.022
		c-0.275-0.466-0.587-1.731-0.734-2.285c-0.148-0.545-0.047-2.596-0.145-3.094c-0.095-0.498-0.354-0.885-0.621-1.061
		c-0.265-0.179-0.669-0.396-0.803-0.366c-0.135,0.029-0.27,0.167-0.148,0.325c0.122,0.155,0.396,0.592,0.473,0.935
		c0.076,0.343,0.075,1.002-0.127,1.863c-0.201,0.858-0.52,2.045-0.488,2.496c0.034,0.448,0.072,0.768,0.114,0.844
		c0.044,0.079,0.078,0.082,0.157,0.056c0.078-0.026,0.281,0.108,0.3,0.249c0.018,0.138-0.183,0.422-0.371,0.437
		c-0.185,0.015-0.4-0.205-0.412-0.372c-0.013-0.164,0.142-0.27,0.085-0.495c-0.059-0.226-0.041-1.14-0.009-1.383
		c0.031-0.243,0.199-0.926,0.416-1.854c0.217-0.932,0.179-1.617-0.015-1.995c-0.192-0.381-0.341-0.724-0.568-0.791
		c-0.227-0.073-0.478-0.126-0.623,0.064c-0.146,0.188-0.352,0.674-0.4,1.143c-0.047,0.469,0,1.436,0.021,2.033
		c0.021,0.595-0.003,1.532-0.149,1.907c-0.145,0.372-0.35,0.668-0.369,0.785c-0.016,0.114,0.069,0.258,0.031,0.352
		c-0.04,0.094-0.249,0.243-0.444,0.108c-0.195-0.138-0.318-0.325-0.227-0.53c0.089-0.208,0.264-0.146,0.407-0.22
		c0.144-0.07,0.568-0.812,0.519-1.734c-0.054-0.929-0.18-1.954-0.066-2.543c0.114-0.595,0.485-1.093,0.456-1.251
		c-0.029-0.161-0.035-0.188-0.073-0.205C15.965,17.871,15.893,17.923,15.893,17.923z"/>
	<linearGradient id="SVGID_2_" gradientUnits="userSpaceOnUse" x1="1.1836" y1="21.5176" x2="15.707" y2="21.5176">
		<stop  offset="0.0056" style="stop-color:#FFFFFF"/>
		<stop  offset="0.0758" style="stop-color:#FFF7D4"/>
		<stop  offset="0.1686" style="stop-color:#FFEEA3"/>
		<stop  offset="0.2663" style="stop-color:#FFE577"/>
		<stop  offset="0.3672" style="stop-color:#FFDF53"/>
		<stop  offset="0.472" style="stop-color:#FFD935"/>
		<stop  offset="0.5821" style="stop-color:#FFD51D"/>
		<stop  offset="0.6999" style="stop-color:#FFD10D"/>
		<stop  offset="0.8305" style="stop-color:#FFD003"/>
		<stop  offset="1" style="stop-color:#FFCF00"/>
	</linearGradient>
	<path fill-rule="evenodd" clip-rule="evenodd" fill="url(#SVGID_2_)" d="M15.382,18.111c-0.082,0.076-0.609,0.923-0.917,2.071
		c-0.306,1.151-0.601,2.168-1.018,3.732c-0.419,1.57-0.902,3.173-1.512,3.785c-0.608,0.609-1.075,1.43-2.249,1.693
		c-1.173,0.267-1.5-0.211-1.704-0.671s-0.211-0.527-0.41-0.34c-0.201,0.19-1.062,0.976-1.847,0.126
		c-0.788-0.847-0.687-2.549-0.655-3.021c0.034-0.472-0.044-0.63-0.479-0.633c-0.439-0.009-0.889,0.214-1.354-0.29
		c-0.461-0.51-0.437-1.567-0.365-2.077c0.07-0.516,0.541-1.699,0.309-2.121c-0.229-0.422-1.361-1.315-1.638-1.939
		c-0.272-0.618-0.659-2.109,0.01-3.097c0.668-0.987,1.668-1.702,3.034-1.755c1.362-0.053,2.191,0.097,3.103,0.24
		c0.914,0.141,4.241,1.271,5.227,1.781c0.983,0.51,1.97,0.908,2.246,1.008c0.275,0.097,0.567,0.302,0.542,0.425
		c-0.022,0.126-0.422,0.023-1.271,0.275c-0.853,0.258-1.342,0.586-1.995,0.709c-0.658,0.123-1.384-0.129-1.77-0.495
		c-0.387-0.366-0.718-0.879-0.737-1.052c-0.016-0.17,0.057-0.22,0.05-0.375c-0.006-0.158-0.233-0.381-0.388-0.305
		c-0.154,0.073-0.473,0.278-0.398,0.463c0.073,0.182,0.248,0.152,0.368,0.284c0.12,0.135,0.048,0.026,0.363,0.434
		c0.312,0.407,0.637,0.955,1.239,1.148c0.605,0.196,1.282,0.214,1.998-0.085c0.718-0.296,1.157-0.416,1.503-0.539
		c0.349-0.117,0.788-0.185,0.848-0.117c0.062,0.064,0.179,0.226,0.119,0.308c-0.062,0.082-0.51,0.117-1.285,0.738
		c-0.775,0.627-1,0.929-1.392,1.963c-0.391,1.031-0.47,0.999-0.731,1.154c-0.262,0.146-0.281,0.07-0.396-0.003
		c-0.114-0.07-0.325,0.003-0.369,0.079c-0.042,0.079-0.149,0.349,0.127,0.586s0.472,0.079,0.527-0.085
		c0.059-0.161,0.214-0.237,0.564-0.642c0.35-0.407,0.5-1.072,0.718-1.573c0.221-0.501,0.938-1.075,1.192-1.31
		c0.252-0.234,0.659-0.533,0.722-0.557c0.06-0.029,0.069,0.009,0.069,0.009V18.111z"/>
	<linearGradient id="SVGID_3_" gradientUnits="userSpaceOnUse" x1="3.1606" y1="14.3213" x2="32.9629" y2="14.3213">
		<stop  offset="0.0056" style="stop-color:#FFFFFF"/>
		<stop  offset="0.0758" style="stop-color:#FFF7D4"/>
		<stop  offset="0.1686" style="stop-color:#FFEEA3"/>
		<stop  offset="0.2663" style="stop-color:#FFE577"/>
		<stop  offset="0.3672" style="stop-color:#FFDF53"/>
		<stop  offset="0.472" style="stop-color:#FFD935"/>
		<stop  offset="0.5821" style="stop-color:#FFD51D"/>
		<stop  offset="0.6999" style="stop-color:#FFD10D"/>
		<stop  offset="0.8305" style="stop-color:#FFD003"/>
		<stop  offset="1" style="stop-color:#FFCF00"/>
	</linearGradient>
	<path fill-rule="evenodd" clip-rule="evenodd" fill="url(#SVGID_3_)" d="M15.725,16.664c-0.031-0.041-2.508-1.802-3.949-2.101
		c-1.441-0.296-5.301-1.523-6.369-2.273c-0.932-0.65-1.535-1.383-1.948-2.306C3.272,9.562,3.026,8.736,3.25,7.813
		c0.227-0.917,0.495-1.629,1.288-2.042c0.794-0.413,1.315-0.349,1.92-0.138c0.605,0.217,1.203,0.65,1.289,0.741
		c0.089,0.091,0.482,0.29,0.164-0.349c-0.316-0.645-0.472-1.16-0.393-1.667s0.467-1.014,0.841-1.195l0.062-0.026l0.045,0.006
		c1.248,0.152,1.644,0.434,1.644,0.434l0.006-0.021c0.053,0.038,0.1,0.059,0.1,0.059s0.233,0.152,0.526,0.126
		s0.667-1.547,1.085-2.007c0.42-0.457,1.267-0.782,2.221-0.261c0.952,0.519,1.466,0.94,1.961,2.068
		c0.494,1.131,0.617,4.151,1.165,5.593c0.546,1.441,0.604,2.514,0.687,3.103c0.082,0.592-0.025,1.403-0.025,1.403l0.1,0.17
		c0,0,1.156-3.308,1.049-4.685c-0.104-1.374,0.207-3.214,0.41-4.154c0.205-0.938,0.7-2.323,1.831-2.78
		c1.132-0.448,1.765,0.117,2.457,1.017c0.691,0.902,0.621,1.063,1.056,1.175c0.438,0.114,1.443-0.141,2.02,0.275
		c0.577,0.419,0.797,1.028,0.776,1.421c-0.021,0.398-0.071,0.624,0.169,0.747c0.241,0.123,1.311,0.434,1.662,0.431
		c0.35,0,1.236,0.094,1.793,0.814c0.555,0.715,0.664,1.324,0.454,2.051c-0.211,0.727-1.288,1.805-2.042,2.332
		c-0.75,0.524-3.154,1.693-4.14,1.963c-0.987,0.272-2.801,0.94-4.08,1.269c-1.276,0.331-1.806,0.478-2.008,0.571
		s-0.491,0.088-0.52,0.179s-0.022,0.357,1,0.105c1.024-0.249,2.42-0.507,3.284-0.882c0.86-0.378,2.165-0.891,3.531-1.078
		c1.364-0.19,2.641-0.097,3.65,0.299c1.012,0.396,1.496,0.703,1.903,1.222c0.475,0.601,1.167,2.689,0.485,3.249
		c-0.18,0.146-0.291,0.419-0.521,0.507c-0.235,0.088-0.469,0.032-0.569,0.132c-0.102,0.103-0.115,0.343,0.107,0.68
		s0.418,1.008,0.4,1.591c-0.02,0.583-0.144,0.688-0.453,0.97c-0.309,0.284-0.752,0.431-1.137,0.337
		c-0.383-0.1-0.486-0.091-0.5,0.056c-0.016,0.146,0.076,0.322,0.182,0.609c0.105,0.29,0.273,1.295,0.08,1.896
		c-0.193,0.604-0.414,1.298-2.006,1.31c-1.588,0.018-2.789-0.413-3.438-0.981c-0.647-0.568-1.734-1.544-2.563-2.484
		c-0.826-0.938-1.806-3.038-2.282-3.964c-0.478-0.923-0.842-1.652-1.166-1.91c-0.327-0.258-0.643-0.299-0.706-0.428
		c-0.062-0.132,0.032-0.293,0.151-0.352s0.628-0.012,1.1,0.378c0.47,0.396,1.532,1.907,1.705,2.142
		c0.17,0.229,1.31,1.89,1.542,2.112c0.233,0.22,0.684,0.56,0.828,0.604c0.141,0.047,0.211,0.149,0.35,0.24
		c0.141,0.085,0.429,0.167,0.584-0.012c0.151-0.179,0.196-0.46,0.035-0.598c-0.161-0.129-0.423-0.126-0.498-0.018
		c-0.073,0.108-0.144,0.328-0.62-0.023c-0.478-0.354-1.061-1.271-1.378-1.723s-1.172-1.655-1.438-2.001
		c-0.271-0.346-0.853-0.961-1.245-1.107s-0.583-0.1-0.664-0.135c-0.079-0.035-0.034-0.205,0.029-0.211s1.305,0.059,2.076,0.36
		s1.885,0.642,2.694,1.151s1.786,0.729,2.33,0.565c0.543-0.161,0.711-0.331,0.811-0.659c0.1-0.322,0.035-0.472,0.168-0.671
		c0.131-0.196,0.295-0.305,0.131-0.404c-0.165-0.094-0.282-0.176-0.508-0.076c-0.225,0.097-0.466,0.22-0.414,0.393
		c0.053,0.173,0.227,0.325,0.314,0.29c0.088-0.038,0.203,0.082,0.047,0.293c-0.156,0.208-0.371,0.636-1.456,0.363
		c-1.084-0.275-1.904-0.87-2.676-1.146c-0.772-0.272-2.276-0.551-2.578-0.571c-0.3-0.021-0.703-0.105-0.958-0.123
		c-0.256-0.015-0.519-0.202-0.429-0.381c0.089-0.185,1.094-0.964,1.79-1.43c0.696-0.463,1.263-0.513,2.515-0.571
		c1.251-0.059,1.689-0.366,2.001-0.633c0.315-0.264,0.417-0.319,0.488-0.275c0.071,0.044,0.234,0.023,0.323-0.076
		c0.092-0.1,0.092-0.287-0.036-0.472c-0.126-0.196-0.224-0.261-0.388-0.199c-0.166,0.062-0.324,0.226-0.292,0.346
		c0.032,0.132-0.06,0.366-0.53,0.536c-0.472,0.17-1.077,0.299-2.067,0.387c-0.99,0.094-1.912,0.313-2.635,0.908
		c-0.724,0.592-1.055,0.879-1.047,0.823c0.009-0.053,0.057-0.123,0.929-0.967s1.5-2.256,1.723-3.056
		c0.226-0.803,0.511-2.089,0.434-2.543c-0.079-0.457-0.185-0.8-0.278-1.005c-0.095-0.202-0.066-0.237-0.098-0.337
		C20.937,7.69,20.947,7.579,20.825,7.5c-0.12-0.079-0.357,0.067-0.42,0.176c-0.062,0.105-0.183,0.275-0.083,0.445
		s0.19,0.27,0.321,0.185c0.129-0.079,0.138-0.135,0.218-0.023c0.083,0.111,0.294,0.507,0.154,1.409
		c-0.139,0.894-0.551,2.268-0.958,2.994c-0.406,0.727-1.012,1.585-1.535,2.186c-0.52,0.601-0.756,0.999-0.901,1.113
		c-0.146,0.114-0.221,0.062-0.296-0.237c-0.078-0.296-0.129-0.554-0.319-1.137c-0.186-0.589-1.352-2.273-1.566-2.713
		c-0.215-0.437-0.705-1.339-0.697-2.013c0.007-0.665,0.031-0.495,0.1-0.636c0.067-0.135,0.19-0.252,0.037-0.378
		c-0.152-0.126-0.387-0.067-0.529,0.053c-0.141,0.123-0.242,0.39-0.126,0.536c0.114,0.149,0.23,0.536,0.252,0.686
		c0.019,0.144,0.05,0.812,0.521,1.758c0.472,0.943,1.166,1.928,1.381,2.326c0.22,0.396,0.765,1.62,0.754,1.852
		c-0.012,0.22-0.016,0.48-0.211,0.41c-0.196-0.073-0.356-0.668-0.495-0.938c-0.138-0.275-0.5-0.838-0.936-1.307
		c-0.437-0.475-2.017-1.638-2.423-1.869c-0.4-0.234-1.065-0.296-1.113-0.401c-0.05-0.103,0.003-0.226-0.089-0.322
		c-0.091-0.094-0.294-0.094-0.422,0.032c-0.129,0.129-0.313,0.451-0.236,0.583c0.076,0.135,0.325,0.185,0.592,0.114
		c0.264-0.073,1.182,0.193,1.963,0.841c0.782,0.647,1.515,1.362,1.806,1.726c0.292,0.357,0.598,0.806,0.719,1.002
		c0.123,0.196,0.233,0.425,0.192,0.545c-0.042,0.117-0.158,0.182-0.311,0.214s-0.157,0.073-0.265,0.018S15.725,16.664,15.725,16.664
		z"/>
</g>
</svg>
