<?xml version="1.0" encoding="utf-8"?>
<!-- Generator: Adobe Illustrator 15.0.0, SVG Export Plug-In . SVG Version: 6.00 Build 0)  -->
<!DOCTYPE svg PUBLIC "-//W3C//DTD SVG 1.1//EN" "http://www.w3.org/Graphics/SVG/1.1/DTD/svg11.dtd">
<svg version="1.1" id="图层_1" xmlns="http://www.w3.org/2000/svg" xmlns:xlink="http://www.w3.org/1999/xlink" x="0px" y="0px"
	 width="41.036px" height="42.046px" viewBox="0 0 41.036 42.046" enable-background="new 0 0 41.036 42.046" xml:space="preserve">
<g>
	<linearGradient id="SVGID_1_" gradientUnits="userSpaceOnUse" x1="7.7026" y1="10.6143" x2="27.3481" y2="10.6143">
		<stop  offset="0.0056" style="stop-color:#FFFFFF"/>
		<stop  offset="0.0758" style="stop-color:#F5D4FB"/>
		<stop  offset="0.1686" style="stop-color:#EAA3F6"/>
		<stop  offset="0.2663" style="stop-color:#E077F2"/>
		<stop  offset="0.3672" style="stop-color:#D753EE"/>
		<stop  offset="0.472" style="stop-color:#D035EB"/>
		<stop  offset="0.5821" style="stop-color:#CB1DE9"/>
		<stop  offset="0.6999" style="stop-color:#C70DE7"/>
		<stop  offset="0.8305" style="stop-color:#C503E6"/>
		<stop  offset="1" style="stop-color:#C400E6"/>
	</linearGradient>
	<path fill-rule="evenodd" clip-rule="evenodd" fill="url(#SVGID_1_)" d="M21.778,19.955c0,0,0.479-0.211,0.858-0.987
		c0.384-0.776,0.981-2.839,1.468-4.77c0.485-1.928,0.454-3,0.948-4.245c0.493-1.248,1.765-2.851,1.911-3.349
		c0.146-0.495,0.929-1.831-0.275-3.363c-1.2-1.538-2.49-0.894-3.025-0.589c-0.536,0.308-0.552,0.498-0.838,0.305
		c-0.287-0.199-2.177-2.285-3.584-1.995c-1.411,0.296-1.891,1.248-1.957,1.69c-0.066,0.434-0.076,0.495-0.524,0.434
		c-0.448-0.059-1.427-0.858-3.16-0.094c-1.734,0.762-1.588,1.345-1.743,1.441c-0.16,0.1-0.39,0.003-1.043-0.24
		C10.156,3.95,9.33,3.765,8.416,4.295C7.5,4.829,7.69,5.394,7.789,5.623c0.097,0.231,0.489,0.665,2.361,2.271
		c1.872,1.608,3.795,4.166,4.348,4.896c0.552,0.724,2.136,3.932,2.555,4.787c0.422,0.855,0.589,1.128,0.589,1.128
		s0.003-0.144-0.097-0.636c-0.098-0.492-0.044-0.99-0.062-1.685c-0.016-0.691-0.195-2.344-0.466-3.144
		c-0.271-0.797-0.791-1.983-1.336-2.461c-0.545-0.486-0.573-0.363-0.608-0.261c-0.034,0.105-0.138,0.261-0.357,0.167
		c-0.221-0.088-0.371-0.495-0.037-0.861c0.33-0.363,0.615-0.278,0.71-0.158c0.094,0.123-0.05,0.278,0.045,0.434
		c0.097,0.155,0.869,0.724,1.23,1.333c0.36,0.606,0.762,2.253,0.954,2.974c0.19,0.715,0.063,3.381,0.188,4.025
		c0.127,0.65,0.464,1.154,0.81,1.386s0.872,0.516,1.046,0.475c0.173-0.038,0.35-0.223,0.192-0.422
		c-0.157-0.202-0.516-0.771-0.614-1.219c-0.101-0.448-0.098-1.307,0.163-2.426c0.262-1.119,0.678-2.663,0.636-3.249
		c-0.044-0.583-0.095-0.999-0.151-1.099s-0.098-0.105-0.202-0.067c-0.101,0.032-0.366-0.146-0.388-0.328
		c-0.023-0.182,0.237-0.551,0.479-0.571c0.242-0.018,0.521,0.27,0.538,0.483c0.015,0.214-0.185,0.352-0.111,0.647
		c0.076,0.296,0.053,1.485,0.015,1.802c-0.042,0.316-0.261,1.201-0.543,2.414c-0.281,1.213-0.231,2.104,0.018,2.602
		c0.25,0.498,0.444,0.938,0.741,1.031c0.296,0.088,0.621,0.155,0.812-0.088c0.19-0.246,0.457-0.879,0.519-1.485
		c0.063-0.615,0-1.875-0.025-2.651c-0.026-0.773,0.001-1.998,0.192-2.481c0.189-0.483,0.458-0.873,0.482-1.025
		c0.022-0.149-0.088-0.331-0.038-0.454c0.05-0.126,0.322-0.319,0.576-0.144s0.415,0.419,0.296,0.691
		c-0.119,0.27-0.344,0.19-0.532,0.284c-0.185,0.094-0.738,1.058-0.674,2.262c0.069,1.204,0.233,2.54,0.085,3.311
		c-0.148,0.773-0.631,1.418-0.592,1.629c0.04,0.208,0.044,0.24,0.097,0.264C21.683,20.028,21.778,19.955,21.778,19.955z"/>
	<linearGradient id="SVGID_2_" gradientUnits="userSpaceOnUse" x1="22.019" y1="15.2773" x2="40.9282" y2="15.2773">
		<stop  offset="0.0056" style="stop-color:#FFFFFF"/>
		<stop  offset="0.0758" style="stop-color:#F5D4FB"/>
		<stop  offset="0.1686" style="stop-color:#EAA3F6"/>
		<stop  offset="0.2663" style="stop-color:#E077F2"/>
		<stop  offset="0.3672" style="stop-color:#D753EE"/>
		<stop  offset="0.472" style="stop-color:#D035EB"/>
		<stop  offset="0.5821" style="stop-color:#CB1DE9"/>
		<stop  offset="0.6999" style="stop-color:#C70DE7"/>
		<stop  offset="0.8305" style="stop-color:#C503E6"/>
		<stop  offset="1" style="stop-color:#C400E6"/>
	</linearGradient>
	<path fill-rule="evenodd" clip-rule="evenodd" fill="url(#SVGID_2_)" d="M22.446,19.711c0.104-0.097,0.792-1.204,1.191-2.695
		c0.398-1.494,0.781-2.821,1.326-4.863c0.543-2.042,1.175-4.128,1.967-4.925c0.793-0.794,1.4-1.857,2.93-2.206
		c1.527-0.349,1.953,0.275,2.219,0.879c0.264,0.598,0.27,0.677,0.533,0.437c0.26-0.246,1.381-1.263,2.406-0.164
		c1.021,1.102,0.891,3.319,0.85,3.932c-0.045,0.618,0.059,0.82,0.627,0.829c0.57,0.003,1.156-0.284,1.758,0.378
		c0.604,0.659,0.566,2.036,0.477,2.704c-0.092,0.668-0.703,2.209-0.404,2.76s1.775,1.717,2.133,2.522s0.859,2.748-0.012,4.035
		c-0.869,1.285-2.172,2.217-3.949,2.285c-1.775,0.07-2.854-0.127-4.043-0.311c-1.188-0.188-5.518-1.658-6.799-2.321
		c-1.285-0.665-2.569-1.187-2.927-1.313c-0.359-0.126-0.737-0.39-0.706-0.554c0.029-0.161,0.548-0.035,1.657-0.363
		s1.745-0.762,2.597-0.92c0.855-0.161,1.802,0.167,2.303,0.645c0.504,0.478,0.938,1.148,0.959,1.371
		c0.023,0.22-0.074,0.284-0.063,0.489c0.008,0.205,0.301,0.489,0.506,0.398c0.201-0.1,0.613-0.366,0.516-0.604
		c-0.094-0.24-0.32-0.196-0.479-0.375c-0.154-0.173-0.063-0.032-0.471-0.563c-0.41-0.53-0.828-1.245-1.616-1.494
		c-0.786-0.255-1.667-0.278-2.603,0.108c-0.932,0.39-1.505,0.545-1.956,0.697c-0.451,0.155-1.024,0.243-1.103,0.158
		c-0.079-0.082-0.231-0.287-0.154-0.398c0.079-0.111,0.665-0.155,1.674-0.964c1.006-0.814,1.299-1.204,1.809-2.552
		c0.51-1.345,0.615-1.307,0.954-1.506c0.34-0.196,0.364-0.088,0.514,0.006s0.424-0.006,0.479-0.105
		c0.058-0.103,0.197-0.454-0.162-0.765c-0.36-0.308-0.617-0.105-0.691,0.111c-0.07,0.214-0.273,0.308-0.73,0.838
		s-0.649,1.395-0.937,2.051c-0.287,0.65-1.22,1.397-1.55,1.702c-0.333,0.305-0.858,0.694-0.94,0.727
		c-0.081,0.035-0.088-0.012-0.088-0.012V19.711z"/>
	<linearGradient id="SVGID_3_" gradientUnits="userSpaceOnUse" x1="-2.1758" y1="24.6455" x2="36.6357" y2="24.6455">
		<stop  offset="0.0056" style="stop-color:#FFFFFF"/>
		<stop  offset="0.0758" style="stop-color:#F5D4FB"/>
		<stop  offset="0.1686" style="stop-color:#EAA3F6"/>
		<stop  offset="0.2663" style="stop-color:#E077F2"/>
		<stop  offset="0.3672" style="stop-color:#D753EE"/>
		<stop  offset="0.472" style="stop-color:#D035EB"/>
		<stop  offset="0.5821" style="stop-color:#CB1DE9"/>
		<stop  offset="0.6999" style="stop-color:#C70DE7"/>
		<stop  offset="0.8305" style="stop-color:#C503E6"/>
		<stop  offset="1" style="stop-color:#C400E6"/>
	</linearGradient>
	<path fill-rule="evenodd" clip-rule="evenodd" fill="url(#SVGID_3_)" d="M21.996,21.595c0.041,0.059,3.268,2.347,5.142,2.734
		c1.875,0.389,6.902,1.988,8.293,2.968c1.098,0.764,2.033,1.871,2.535,2.996c0.244,0.549,0.563,1.629,0.271,2.824
		c-0.293,1.195-0.641,2.121-1.678,2.66c-1.031,0.543-1.711,0.461-2.496,0.182c-0.791-0.277-1.566-0.846-1.684-0.963
		c-0.115-0.121-0.625-0.381-0.211,0.453c0.412,0.838,0.617,1.51,0.512,2.168c-0.105,0.66-0.607,1.322-1.096,1.557l-0.078,0.035
		l-0.061-0.006c-1.627-0.199-2.139-0.566-2.139-0.566L29.3,38.66c-0.07-0.047-0.129-0.07-0.129-0.07s-0.305-0.199-0.689-0.166
		c-0.379,0.035-0.862,2.01-1.41,2.609c-0.548,0.598-1.649,1.02-2.89,0.344c-1.242-0.678-1.91-1.225-2.555-2.699
		c-0.642-1.467-0.804-5.402-1.516-7.277c-0.713-1.875-0.788-3.271-0.895-4.037c-0.11-0.771,0.032-1.827,0.032-1.827l-0.129-0.227
		c0,0-1.503,4.31-1.368,6.101c0.138,1.789-0.267,4.189-0.532,5.408c-0.268,1.221-0.911,3.031-2.386,3.621
		c-1.471,0.588-2.297-0.15-3.198-1.322c-0.899-1.174-0.809-1.383-1.375-1.531c-0.568-0.146-1.876,0.184-2.628-0.357
		c-0.753-0.543-1.039-1.34-1.014-1.85c0.028-0.518,0.092-0.811-0.218-0.973c-0.313-0.158-1.705-0.564-2.164-0.563
		c-0.458,0-1.611-0.123-2.333-1.057c-0.722-0.936-0.867-1.729-0.592-2.672c0.275-0.947,1.677-2.344,2.659-3.033
		c0.976-0.685,4.104-2.208,5.389-2.56c1.286-0.352,3.649-1.229,5.31-1.656c1.663-0.428,2.354-0.615,2.616-0.741
		c0.262-0.12,0.64-0.114,0.677-0.229c0.038-0.117,0.029-0.466-1.302-0.138c-1.332,0.325-3.152,0.656-4.276,1.148
		c-1.121,0.49-2.82,1.158-4.597,1.4c-1.778,0.25-3.438,0.129-4.755-0.389c-1.317-0.514-1.947-0.915-2.477-1.585
		c-0.63-0.794-1.534-3.498-0.633-4.233c0.233-0.188,0.379-0.542,0.68-0.659c0.305-0.117,0.609-0.041,0.741-0.173
		c0.13-0.132,0.148-0.445-0.141-0.888c-0.292-0.439-0.545-1.31-0.521-2.071c0.023-0.759,0.186-0.896,0.589-1.26
		c0.401-0.366,0.979-0.565,1.479-0.437c0.501,0.126,0.633,0.117,0.652-0.07c0.018-0.19-0.098-0.422-0.236-0.8
		c-0.135-0.378-0.354-1.685-0.104-2.47C3.315,8.491,3.601,7.588,5.67,7.568c2.068-0.018,3.633,0.545,4.477,1.28
		c0.844,0.744,2.26,2.013,3.337,3.234s2.353,3.961,2.974,5.162s1.097,2.15,1.519,2.487c0.423,0.331,0.836,0.39,0.918,0.56
		c0.081,0.17-0.041,0.375-0.195,0.454c-0.155,0.076-0.819,0.018-1.434-0.492c-0.614-0.513-1.994-2.479-2.218-2.786
		c-0.226-0.302-1.708-2.458-2.011-2.751c-0.3-0.287-0.891-0.727-1.075-0.785s-0.275-0.199-0.458-0.313
		c-0.18-0.111-0.56-0.22-0.759,0.015c-0.196,0.234-0.253,0.604-0.047,0.776s0.549,0.167,0.647,0.026
		c0.097-0.144,0.186-0.431,0.809,0.032c0.623,0.46,1.378,1.652,1.794,2.238c0.415,0.589,1.525,2.156,1.872,2.604
		c0.352,0.448,1.11,1.251,1.622,1.441c0.51,0.19,0.757,0.132,0.861,0.179c0.105,0.047,0.047,0.264-0.035,0.272
		c-0.082,0.006-1.698-0.076-2.703-0.466c-1.005-0.393-2.452-0.838-3.508-1.5c-1.053-0.665-2.322-0.949-3.031-0.741
		c-0.709,0.214-0.926,0.437-1.056,0.861c-0.132,0.422-0.048,0.615-0.22,0.873s-0.387,0.398-0.171,0.524
		c0.217,0.123,0.368,0.234,0.661,0.108c0.296-0.132,0.608-0.29,0.542-0.516c-0.069-0.226-0.297-0.428-0.412-0.378
		c-0.116,0.05-0.264-0.105-0.059-0.378c0.204-0.275,0.482-0.832,1.893-0.475s2.481,1.134,3.486,1.485
		c1.003,0.357,2.965,0.718,3.357,0.747s0.914,0.141,1.247,0.158c0.334,0.021,0.677,0.267,0.56,0.504
		c-0.117,0.231-1.427,1.248-2.332,1.851c-0.905,0.609-1.642,0.674-3.272,0.748c-1.629,0.078-2.199,0.48-2.609,0.826
		c-0.407,0.342-0.541,0.412-0.634,0.357c-0.094-0.053-0.306-0.029-0.422,0.1s-0.116,0.369,0.05,0.615
		c0.166,0.248,0.29,0.336,0.504,0.26c0.217-0.082,0.423-0.295,0.381-0.459c-0.041-0.164,0.076-0.473,0.69-0.691
		c0.614-0.223,1.402-0.387,2.691-0.508c1.291-0.117,2.49-0.404,3.431-1.18c0.942-0.773,1.374-1.14,1.362-1.07
		c-0.009,0.067-0.073,0.161-1.207,1.259c-1.134,1.096-1.954,2.933-2.246,3.979c-0.29,1.043-0.664,2.715-0.561,3.311
		c0.103,0.598,0.24,1.043,0.36,1.307c0.125,0.26,0.086,0.307,0.129,0.436c0.041,0.123,0.028,0.273,0.188,0.375
		c0.155,0.109,0.463-0.088,0.545-0.225c0.082-0.141,0.239-0.361,0.108-0.586c-0.127-0.221-0.246-0.346-0.415-0.24
		s-0.18,0.176-0.286,0.035c-0.105-0.146-0.384-0.668-0.201-1.834c0.182-1.166,0.718-2.953,1.248-3.899
		c0.53-0.947,1.32-2.063,1.997-2.848c0.68-0.779,0.986-1.298,1.178-1.445c0.189-0.149,0.284-0.082,0.387,0.308
		c0.098,0.383,0.164,0.717,0.409,1.477c0.246,0.768,1.764,2.958,2.042,3.532c0.281,0.568,0.918,1.744,0.907,2.617
		c-0.012,0.875-0.038,0.65-0.127,0.832c-0.088,0.178-0.249,0.334-0.05,0.492c0.201,0.164,0.502,0.082,0.688-0.07
		c0.185-0.158,0.315-0.508,0.167-0.697c-0.149-0.193-0.303-0.697-0.328-0.891c-0.028-0.193-0.069-1.061-0.681-2.289
		c-0.612-1.228-1.518-2.513-1.8-3.032c-0.284-0.512-0.992-2.112-0.98-2.402c0.013-0.293,0.021-0.633,0.274-0.539
		c0.256,0.097,0.466,0.867,0.646,1.222c0.18,0.354,0.649,1.084,1.217,1.7c0.567,0.615,2.63,2.129,3.154,2.435
		c0.524,0.301,1.387,0.381,1.451,0.518c0.066,0.141-0.004,0.297,0.116,0.422c0.117,0.123,0.382,0.123,0.55-0.043
		c0.168-0.168,0.41-0.586,0.309-0.756c-0.103-0.174-0.425-0.244-0.771-0.15c-0.345,0.098-1.539-0.255-2.557-1.095
		c-1.017-0.842-1.972-1.773-2.351-2.244c-0.384-0.473-0.778-1.055-0.938-1.307c-0.16-0.255-0.303-0.554-0.249-0.709
		c0.053-0.155,0.205-0.24,0.404-0.278c0.198-0.044,0.202-0.1,0.344-0.023C21.905,21.583,21.996,21.595,21.996,21.595z"/>
</g>
</svg>
