<?xml version="1.0" encoding="utf-8"?>
<!-- Generator: Adobe Illustrator 15.0.0, SVG Export Plug-In . SVG Version: 6.00 Build 0)  -->
<!DOCTYPE svg PUBLIC "-//W3C//DTD SVG 1.1//EN" "http://www.w3.org/Graphics/SVG/1.1/DTD/svg11.dtd">
<svg version="1.1" id="图层_1" xmlns="http://www.w3.org/2000/svg" xmlns:xlink="http://www.w3.org/1999/xlink" x="0px" y="0px"
	 width="41.036px" height="39.662px" viewBox="0 0 41.036 39.662" enable-background="new 0 0 41.036 39.662" xml:space="preserve">
<g>
	<linearGradient id="SVGID_1_" gradientUnits="userSpaceOnUse" x1="27.1382" y1="10.0908" x2="8.9364" y2="10.0908">
		<stop  offset="0.0056" style="stop-color:#FFFFFF"/>
		<stop  offset="0.0758" style="stop-color:#FCE4D4"/>
		<stop  offset="0.1686" style="stop-color:#F8C5A3"/>
		<stop  offset="0.2663" style="stop-color:#F4A977"/>
		<stop  offset="0.3672" style="stop-color:#F19253"/>
		<stop  offset="0.472" style="stop-color:#EF7F35"/>
		<stop  offset="0.5821" style="stop-color:#ED701D"/>
		<stop  offset="0.6999" style="stop-color:#EC660D"/>
		<stop  offset="0.8305" style="stop-color:#EB6003"/>
		<stop  offset="1" style="stop-color:#EB5E00"/>
	</linearGradient>
	<path fill-rule="evenodd" clip-rule="evenodd" fill="url(#SVGID_1_)" d="M22.063,18.965c0,0,0.457-0.202,0.813-0.943
		c0.359-0.741,0.916-2.707,1.365-4.55c0.447-1.837,0.41-2.859,0.873-4.049s1.661-2.73,1.794-3.199
		c0.14-0.475,0.873-1.749-0.282-3.202c-1.154-1.456-2.375-0.832-2.881-0.536c-0.508,0.293-0.523,0.478-0.797,0.29
		c-0.274-0.182-2.09-2.162-3.426-1.866c-1.34,0.284-1.79,1.195-1.85,1.611c-0.062,0.422-0.067,0.475-0.498,0.422
		c-0.426-0.05-1.362-0.806-3.007-0.07c-1.645,0.741-1.503,1.295-1.652,1.386c-0.148,0.094-0.368,0.003-0.993-0.22
		C10.895,3.81,10.108,3.64,9.241,4.149C8.372,4.662,8.558,5.201,8.65,5.418c0.095,0.217,0.472,0.63,2.265,2.147
		c1.793,1.515,3.64,3.938,4.172,4.626c0.529,0.686,2.06,3.732,2.465,4.541c0.404,0.814,0.565,1.072,0.565,1.072s0-0.138-0.095-0.604
		c-0.098-0.469-0.048-0.946-0.07-1.608c-0.021-0.659-0.201-2.229-0.464-2.985c-0.265-0.762-0.766-1.884-1.289-2.338
		c-0.523-0.457-0.548-0.34-0.579-0.24c-0.032,0.1-0.132,0.246-0.341,0.158c-0.209-0.082-0.354-0.466-0.041-0.814
		c0.315-0.349,0.584-0.275,0.675-0.158c0.091,0.114-0.047,0.267,0.047,0.413s0.832,0.683,1.179,1.26
		c0.349,0.577,0.741,2.145,0.929,2.821c0.188,0.68,0.082,3.217,0.207,3.838c0.126,0.615,0.447,1.09,0.779,1.31
		c0.331,0.217,0.833,0.48,1,0.442c0.164-0.035,0.33-0.211,0.179-0.401c-0.152-0.19-0.495-0.729-0.595-1.154
		c-0.095-0.425-0.1-1.242,0.142-2.312c0.24-1.066,0.625-2.537,0.58-3.097c-0.044-0.557-0.094-0.949-0.148-1.049
		c-0.054-0.091-0.097-0.097-0.192-0.064c-0.098,0.035-0.352-0.132-0.375-0.305c-0.023-0.176,0.224-0.527,0.453-0.548
		c0.233-0.018,0.5,0.258,0.516,0.457c0.016,0.202-0.174,0.34-0.101,0.615c0.073,0.281,0.06,1.418,0.025,1.72
		c-0.038,0.299-0.242,1.146-0.501,2.3s-0.207,2.004,0.034,2.476c0.243,0.472,0.429,0.888,0.712,0.973
		c0.283,0.082,0.592,0.149,0.773-0.085c0.179-0.237,0.429-0.838,0.483-1.421c0.056-0.583-0.013-1.781-0.042-2.52
		c-0.028-0.738-0.012-1.901,0.166-2.364c0.177-0.46,0.431-0.835,0.453-0.976c0.019-0.144-0.083-0.316-0.04-0.437
		c0.045-0.117,0.305-0.305,0.548-0.138c0.242,0.167,0.397,0.396,0.287,0.656c-0.108,0.255-0.325,0.182-0.504,0.272
		c-0.177,0.094-0.697,1.011-0.624,2.159c0.07,1.146,0.234,2.417,0.1,3.149c-0.133,0.735-0.59,1.356-0.554,1.556
		c0.04,0.196,0.045,0.226,0.094,0.249C21.975,19.035,22.063,18.965,22.063,18.965z"/>
	<linearGradient id="SVGID_2_" gradientUnits="userSpaceOnUse" x1="40.4233" y1="14.439" x2="22.6027" y2="14.439">
		<stop  offset="0.0056" style="stop-color:#FFFFFF"/>
		<stop  offset="0.0758" style="stop-color:#FCE4D4"/>
		<stop  offset="0.1686" style="stop-color:#F8C5A3"/>
		<stop  offset="0.2663" style="stop-color:#F4A977"/>
		<stop  offset="0.3672" style="stop-color:#F19253"/>
		<stop  offset="0.472" style="stop-color:#EF7F35"/>
		<stop  offset="0.5821" style="stop-color:#ED701D"/>
		<stop  offset="0.6999" style="stop-color:#EC660D"/>
		<stop  offset="0.8305" style="stop-color:#EB6003"/>
		<stop  offset="1" style="stop-color:#EB5E00"/>
	</linearGradient>
	<path fill-rule="evenodd" clip-rule="evenodd" fill="url(#SVGID_2_)" d="M22.697,18.73c0.101-0.094,0.746-1.151,1.116-2.578
		c0.371-1.421,0.727-2.684,1.232-4.635c0.501-1.945,1.088-3.938,1.837-4.696c0.75-0.765,1.32-1.784,2.773-2.121
		c1.452-0.34,1.861,0.246,2.117,0.817c0.258,0.568,0.267,0.647,0.512,0.413c0.247-0.234,1.307-1.213,2.287-0.17
		c0.982,1.043,0.873,3.149,0.838,3.735c-0.037,0.586,0.059,0.782,0.602,0.785c0.541,0,1.098-0.278,1.676,0.349
		c0.578,0.621,0.553,1.934,0.471,2.572c-0.082,0.636-0.651,2.109-0.365,2.628c0.288,0.521,1.703,1.62,2.047,2.385
		c0.345,0.768,0.838,2.61,0.017,3.841c-0.819,1.23-2.054,2.121-3.743,2.203c-1.689,0.079-2.72-0.103-3.852-0.272
		c-1.133-0.17-5.264-1.538-6.488-2.159c-1.228-0.624-2.454-1.113-2.793-1.23c-0.343-0.117-0.703-0.369-0.677-0.524
		c0.028-0.155,0.523-0.035,1.575-0.357c1.053-0.322,1.657-0.732,2.467-0.891c0.81-0.161,1.716,0.146,2.197,0.598
		s0.897,1.087,0.92,1.298c0.024,0.214-0.069,0.272-0.056,0.466c0.01,0.193,0.29,0.469,0.482,0.375
		c0.191-0.094,0.582-0.352,0.49-0.577c-0.094-0.226-0.308-0.182-0.457-0.352c-0.15-0.167-0.062-0.032-0.457-0.533
		c-0.39-0.498-0.797-1.181-1.545-1.415c-0.749-0.231-1.592-0.249-2.478,0.123c-0.883,0.375-1.431,0.527-1.859,0.68
		c-0.426,0.149-0.971,0.234-1.049,0.158c-0.073-0.079-0.22-0.272-0.146-0.381c0.073-0.105,0.631-0.149,1.586-0.932
		c0.952-0.776,1.23-1.154,1.703-2.435c0.477-1.286,0.578-1.248,0.9-1.441c0.322-0.19,0.346-0.088,0.49,0
		c0.141,0.088,0.4-0.006,0.453-0.103c0.054-0.1,0.183-0.434-0.162-0.724c-0.342-0.296-0.586-0.097-0.652,0.105
		c-0.069,0.205-0.263,0.296-0.693,0.803c-0.43,0.51-0.606,1.336-0.877,1.957c-0.27,0.624-1.15,1.342-1.465,1.635
		c-0.312,0.293-0.813,0.665-0.888,0.697c-0.078,0.032-0.085-0.012-0.085-0.012L22.697,18.73z"/>
	<linearGradient id="SVGID_3_" gradientUnits="userSpaceOnUse" x1="35.9146" y1="23.4707" x2="0.6608" y2="23.4707">
		<stop  offset="0.0056" style="stop-color:#FFFFFF"/>
		<stop  offset="0.0758" style="stop-color:#FCE4D4"/>
		<stop  offset="0.1686" style="stop-color:#F8C5A3"/>
		<stop  offset="0.2663" style="stop-color:#F4A977"/>
		<stop  offset="0.3672" style="stop-color:#F19253"/>
		<stop  offset="0.472" style="stop-color:#EF7F35"/>
		<stop  offset="0.5821" style="stop-color:#ED701D"/>
		<stop  offset="0.6999" style="stop-color:#EC660D"/>
		<stop  offset="0.8305" style="stop-color:#EB6003"/>
		<stop  offset="1" style="stop-color:#EB5E00"/>
	</linearGradient>
	<path fill-rule="evenodd" clip-rule="evenodd" fill="url(#SVGID_3_)" d="M4.247,22.864c1.257,0.483,2.839,0.589,4.528,0.34
		c1.692-0.249,3.305-0.894,4.368-1.365c1.065-0.475,2.795-0.803,4.062-1.122c1.264-0.319,1.276,0.012,1.238,0.12
		c-0.034,0.111-0.393,0.108-0.64,0.226c-0.249,0.12-0.907,0.305-2.484,0.724c-1.581,0.419-3.823,1.266-5.043,1.611
		c-1.219,0.34-4.189,1.811-5.117,2.47s-2.253,2.004-2.509,2.906c-0.255,0.899-0.113,1.655,0.582,2.537
		c0.694,0.888,1.792,0.996,2.229,0.99c0.435,0,1.765,0.375,2.064,0.524c0.297,0.149,0.237,0.431,0.214,0.92
		c-0.022,0.489,0.255,1.245,0.976,1.758c0.719,0.51,1.963,0.185,2.505,0.322c0.542,0.135,0.454,0.337,1.32,1.447
		s1.655,1.808,3.054,1.236c1.396-0.574,1.998-2.297,2.244-3.463c0.245-1.16,0.614-3.448,0.472-5.153
		c-0.142-1.702,1.263-5.807,1.263-5.807l0.123,0.208c0,0-0.127,1.005-0.019,1.737s0.188,2.057,0.877,3.841
		c0.691,1.784,0.873,5.52,1.496,6.92c0.62,1.395,1.261,1.913,2.445,2.549c1.185,0.636,2.233,0.226,2.753-0.349
		c0.517-0.568,0.962-2.458,1.326-2.49c0.361-0.035,0.654,0.152,0.654,0.152s0.057,0.023,0.123,0.067l0.007-0.021
		c0,0,0.492,0.34,2.04,0.519l0.057,0.009l0.076-0.035c0.463-0.229,0.936-0.858,1.032-1.488c0.095-0.627-0.104-1.266-0.503-2.063
		c-0.398-0.788,0.09-0.548,0.198-0.428c0.111,0.108,0.855,0.642,1.606,0.902c0.754,0.258,1.399,0.334,2.379-0.19
		c0.98-0.516,1.306-1.403,1.576-2.543c0.271-1.137-0.039-2.168-0.275-2.681c-0.57-1.26-1.067-1.901-2.433-2.842
		c-1.33-0.917-6.128-2.408-7.916-2.769c-1.786-0.352-4.871-2.514-4.912-2.566c0,0-0.086-0.009-0.223-0.079
		c-0.135-0.07-0.138-0.015-0.327,0.023c-0.189,0.044-0.333,0.123-0.385,0.272c-0.048,0.146,0.089,0.431,0.243,0.671
		c0.155,0.24,0.536,0.794,0.901,1.236c0.366,0.448,1.28,1.327,2.254,2.121c0.974,0.797,2.113,1.119,2.439,1.025
		c0.33-0.091,0.641-0.026,0.735,0.138c0.1,0.167-0.128,0.56-0.287,0.724c-0.158,0.158-0.41,0.158-0.526,0.041
		c-0.111-0.114-0.045-0.267-0.109-0.396s-0.888-0.199-1.387-0.486c-0.501-0.287-2.473-1.717-3.018-2.297
		c-0.542-0.58-0.996-1.271-1.169-1.608c-0.173-0.334-0.376-1.072-0.621-1.157c-0.245-0.091-0.246,0.234-0.259,0.516
		c-0.01,0.275,0.675,1.79,0.948,2.279c0.274,0.489,1.143,1.708,1.734,2.874s0.637,1.989,0.664,2.174
		c0.025,0.182,0.174,0.665,0.319,0.844c0.142,0.182,0.022,0.513-0.154,0.665c-0.177,0.146-0.464,0.229-0.656,0.073
		c-0.19-0.152-0.038-0.302,0.044-0.469c0.083-0.173,0.111,0.038,0.117-0.794c0.004-0.829-0.611-1.942-0.882-2.484
		c-0.27-0.542-1.727-2.619-1.966-3.346c-0.239-0.729-0.306-1.043-0.403-1.409s-0.189-0.434-0.368-0.293
		c-0.182,0.146-0.469,0.642-1.109,1.392c-0.642,0.744-1.386,1.813-1.884,2.719c-0.498,0.908-0.996,2.613-1.162,3.724
		c-0.166,1.113,0.103,1.605,0.204,1.74c0.103,0.141,0.111,0.07,0.271-0.032s0.275,0.012,0.398,0.226
		c0.125,0.211-0.022,0.422-0.1,0.56c-0.079,0.132-0.371,0.316-0.52,0.214c-0.151-0.097-0.139-0.234-0.18-0.354
		c-0.04-0.123-0.006-0.164-0.123-0.416c-0.12-0.246-0.252-0.674-0.354-1.239c-0.103-0.568,0.245-2.159,0.514-3.152
		c0.27-0.999,1.04-2.757,2.111-3.809c1.071-1.049,1.129-1.14,1.138-1.204c0.01-0.067-0.397,0.29-1.291,1.031
		c-0.889,0.738-2.027,1.025-3.253,1.146c-1.229,0.12-1.979,0.281-2.561,0.498c-0.582,0.214-0.691,0.507-0.652,0.665
		c0.04,0.155-0.154,0.36-0.359,0.437c-0.202,0.076-0.324-0.006-0.48-0.24c-0.161-0.234-0.164-0.466-0.053-0.589
		s0.312-0.149,0.401-0.097s0.215-0.015,0.602-0.346c0.385-0.331,0.924-0.718,2.477-0.8c1.55-0.085,2.251-0.152,3.11-0.732
		c0.858-0.583,2.096-1.556,2.206-1.784c0.11-0.226-0.218-0.454-0.533-0.472c-0.318-0.015-0.817-0.117-1.189-0.144
		c-0.375-0.026-2.244-0.354-3.202-0.688c-0.957-0.331-1.982-1.061-3.328-1.392c-1.343-0.331-1.607,0.202-1.797,0.463
		c-0.193,0.261-0.05,0.41,0.06,0.363c0.105-0.05,0.325,0.144,0.391,0.357c0.066,0.208-0.233,0.366-0.51,0.489
		c-0.28,0.126-0.423,0.021-0.63-0.097c-0.207-0.12-0.003-0.252,0.158-0.498c0.163-0.249,0.083-0.434,0.202-0.835
		c0.12-0.401,0.328-0.615,1-0.826c0.674-0.205,1.882,0.059,2.893,0.686c1.008,0.624,2.389,1.037,3.347,1.403
		c0.958,0.369,2.498,0.437,2.575,0.428c0.079-0.009,0.132-0.217,0.032-0.261c-0.098-0.044-0.335,0.015-0.823-0.164
		c-0.486-0.176-1.214-0.935-1.55-1.362c-0.335-0.422-1.403-1.907-1.802-2.464c-0.4-0.554-1.126-1.688-1.721-2.121
		c-0.595-0.437-0.678-0.161-0.771-0.026c-0.094,0.138-0.417,0.144-0.617-0.021s-0.148-0.516,0.038-0.735
		c0.189-0.229,0.551-0.129,0.724-0.021c0.174,0.108,0.262,0.237,0.438,0.29c0.176,0.056,0.74,0.472,1.028,0.747
		c0.29,0.272,1.718,2.317,1.934,2.607c0.212,0.287,1.542,2.153,2.131,2.631c0.587,0.483,1.219,0.533,1.364,0.46
		c0.149-0.073,0.262-0.272,0.186-0.434c-0.079-0.161-0.475-0.214-0.879-0.527s-0.863-1.216-1.462-2.355
		c-0.601-1.143-1.831-3.738-2.865-4.893c-1.034-1.16-2.389-2.361-3.199-3.056c-0.806-0.7-2.298-1.225-4.269-1.192
		C4.682,7.316,4.41,8.175,4.177,8.928c-0.233,0.744-0.015,1.983,0.117,2.344s0.245,0.577,0.229,0.759
		c-0.016,0.179-0.144,0.193-0.621,0.076c-0.476-0.117-1.025,0.073-1.405,0.425c-0.379,0.346-0.533,0.478-0.551,1.201
		c-0.016,0.724,0.23,1.553,0.508,1.972c0.28,0.416,0.265,0.715,0.141,0.841c-0.126,0.126-0.416,0.056-0.702,0.17
		C-1.117,17.893,2.469,22.188,4.247,22.864z"/>
</g>
</svg>
